<svg width="21" height="18" viewBox="0 0 21 18" fill="none" xmlns="http://www.w3.org/2000/svg">
<path fill-rule="evenodd" clip-rule="evenodd" d="M15.8333 15.9922H14.1673V12.5482C14.1673 11.9952 13.7203 11.5482 13.1673 11.5482H7.83333C7.28033 11.5482 6.83333 11.9952 6.83333 12.5482V15.9922H5.16733C4.73833 15.9922 4.38933 15.6432 4.38933 15.2152V9.04919C5.01833 8.93819 5.59833 8.64619 6.05633 8.21119C6.64533 8.77219 7.43733 9.10319 8.27733 9.10319C9.11733 9.10319 9.91033 8.77219 10.5003 8.21119C11.0903 8.77219 11.8833 9.10319 12.7233 9.10319C13.5623 9.10319 14.3543 8.77219 14.9443 8.21119C15.4023 8.64619 15.9823 8.93819 16.6113 9.04919V15.2152C16.6113 15.6432 16.2623 15.9922 15.8333 15.9922ZM8.83333 15.9922H12.1673V13.5482H8.83333V15.9922ZM2.61133 4.96819C2.61133 4.84719 2.64033 4.72719 2.69333 4.62019L3.79233 2.42219C3.92333 2.16119 4.19533 1.99219 4.48733 1.99219H16.5133C16.8053 1.99219 17.0773 2.16119 17.2083 2.42219L18.3073 4.62019C18.3603 4.72719 18.3893 4.84719 18.3893 4.96819V5.88119C18.3893 6.55419 17.8413 7.10319 17.1673 7.10319C16.6903 7.10319 16.2533 6.82019 16.0543 6.38319C15.8543 5.94719 15.4213 5.66619 14.9473 5.66519C14.9463 5.66419 14.9453 5.66419 14.9443 5.66419C14.4723 5.66419 14.0373 5.94419 13.8373 6.37919C13.8373 6.38019 13.8363 6.38219 13.8353 6.38319C13.6363 6.82019 13.1993 7.10319 12.7233 7.10319C12.2463 7.10319 11.8093 6.82019 11.6093 6.38319C11.4103 5.94619 10.9753 5.66519 10.5003 5.66519C10.0253 5.66519 9.59033 5.94619 9.39133 6.38319C9.19133 6.82019 8.75433 7.10319 8.27733 7.10319C7.80133 7.10319 7.36433 6.82019 7.16333 6.37919C6.96333 5.94419 6.52833 5.66419 6.05633 5.66419C6.05533 5.66419 6.05433 5.66419 6.05333 5.66519C5.57933 5.66619 5.14533 5.94719 4.94633 6.38319C4.74733 6.82019 4.31033 7.10319 3.83333 7.10319C3.15933 7.10319 2.61133 6.55419 2.61133 5.88119V4.96819ZM20.0963 3.72519L18.9973 1.52719C18.5233 0.580187 17.5713 -0.0078125 16.5133 -0.0078125H4.48733C3.42933 -0.0078125 2.47733 0.580187 2.00333 1.52719L0.904328 3.72519C0.713328 4.10919 0.611328 4.53919 0.611328 4.96819V5.88119C0.611328 7.13619 1.33933 8.21419 2.38933 8.74619V15.2152C2.38933 16.7462 3.63533 17.9922 5.16733 17.9922H7.83333H13.1673H15.8333C17.3653 17.9922 18.6113 16.7462 18.6113 15.2152V8.74619C19.6613 8.21419 20.3893 7.13619 20.3893 5.88119V4.96819C20.3893 4.53919 20.2873 4.10919 20.0963 3.72519Z" fill="#354156"/>
</svg>
