<svg width="112" height="113" viewBox="0 0 112 113" fill="none" xmlns="http://www.w3.org/2000/svg">
<path d="M44.4808 7.89278C49.0265 1.30811 58.6017 0.881257 63.7152 7.03532L66.6647 10.5849C69.4548 13.9428 73.8395 15.5341 78.1338 14.7474L82.6733 13.9158C90.5436 12.474 97.6161 18.9429 96.8804 26.9102L96.456 31.5057C96.0545 35.853 98.0297 40.0787 101.623 42.559L105.421 45.1809C112.005 49.7265 112.432 59.3017 106.278 64.4152L102.728 67.3647C99.3705 70.1548 97.7792 74.5395 98.5659 78.8338L99.3975 83.3733C100.839 91.2436 94.3704 98.3161 86.403 97.5804L81.8075 97.156C77.4602 96.7545 73.2346 98.7297 70.7543 102.323L68.1324 106.121C63.5868 112.705 54.0116 113.132 48.898 106.978L45.9486 103.428C43.1585 100.071 38.7738 98.4792 34.4795 99.2659L29.94 100.097C22.0697 101.539 14.9971 95.0704 15.7329 87.103L16.1573 82.5075C16.5588 78.1603 14.5836 73.9346 10.9907 71.4543L7.19277 68.8324C0.608109 64.2868 0.181254 54.7116 6.33531 49.598L9.88491 46.6486C13.2428 43.8585 14.8341 39.4738 14.0474 35.1795L13.2158 30.64C11.774 22.7697 18.2429 15.6971 26.2102 16.4329L30.8057 16.8573C35.153 17.2588 39.3787 15.2836 41.859 11.6907L44.4808 7.89278Z" fill="#E5C4ED"/>
<path d="M30.1929 67.8106L24.3471 57.6853L25.7646 56.8669L33.3237 61.8758L32.7366 52.8416L34.1686 52.0149L40.0144 62.1401L38.7994 62.8416L34.2229 54.915L34.7242 63.2658L33.8129 63.792L26.8398 59.1969L31.4079 67.1091L30.1929 67.8106ZM45.0637 59.4564C44.4079 59.835 43.7217 60.0383 43.005 60.0663C42.2828 60.0847 41.5963 59.9089 40.9455 59.5389C40.2892 59.1593 39.7299 58.5693 39.2678 57.7689C38.828 57.0071 38.6058 56.2547 38.6011 55.5116C38.606 54.7631 38.7942 54.0758 39.1657 53.4499C39.5469 52.8184 40.0846 52.3022 40.7789 51.9013C41.4443 51.5172 42.1353 51.3111 42.852 51.283C43.5783 51.2494 44.2717 51.4148 44.9321 51.7793C45.5925 52.1437 46.1538 52.7261 46.6159 53.5265C47.039 54.2594 47.2557 55.0021 47.266 55.7548C47.2762 56.5075 47.0915 57.212 46.7119 57.8683C46.3363 58.5095 45.7869 59.0388 45.0637 59.4564ZM44.454 58.4005C44.9265 58.1277 45.2868 57.7718 45.5348 57.3329C45.7773 56.8843 45.8925 56.3935 45.8805 55.8604C45.8684 55.3274 45.7037 54.786 45.3864 54.2363C45.0858 53.7156 44.7221 53.3084 44.2954 53.0148C43.8687 52.7211 43.4053 52.5643 42.9053 52.5445C42.4052 52.5246 41.8948 52.665 41.3741 52.9656C40.8437 53.2718 40.4649 53.6513 40.2376 54.1039C40.02 54.551 39.9365 55.0299 39.9872 55.5407C40.0378 56.0515 40.2078 56.5576 40.4973 57.059C40.8648 57.6955 41.2812 58.1494 41.7464 58.4208C42.2061 58.6826 42.6749 58.8041 43.1526 58.7854C43.6249 58.757 44.0587 58.6287 44.454 58.4005ZM53.3015 54.7003C52.5686 55.1234 51.8396 55.3193 51.1144 55.288C50.3891 55.2567 49.7176 55.0401 49.0998 54.6382C48.4821 54.2362 47.97 53.6833 47.5636 52.9794C47.1627 52.2851 46.9379 51.5727 46.889 50.8423C46.8498 50.1063 47.0008 49.4213 47.3419 48.7872C47.6774 48.1435 48.2212 47.6045 48.9734 47.1703C49.5616 46.8307 50.1519 46.6506 50.7443 46.63C51.3367 46.6094 51.8836 46.7437 52.3848 47.0329L49.988 42.8815L51.2031 42.18L57.0489 52.3053L55.9496 52.94L55.1491 51.8207C55.1181 52.3014 54.9663 52.8069 54.6938 53.3371C54.4214 53.8673 53.9573 54.3217 53.3015 54.7003ZM52.8221 53.5692C53.3524 53.263 53.7312 52.8835 53.9585 52.4309C54.1802 51.9686 54.2657 51.4821 54.2151 50.9713C54.1686 50.4453 54.0033 49.9364 53.7194 49.4446C53.4187 48.9239 53.0551 48.5167 52.6284 48.223C52.2017 47.9293 51.7383 47.7726 51.2383 47.7527C50.7326 47.7232 50.2195 47.8587 49.6987 48.1594C49.2359 48.4266 48.8852 48.7769 48.6468 49.2103C48.4085 49.6436 48.2953 50.1268 48.3073 50.6599C48.3234 51.1778 48.493 51.7163 48.8159 52.2756C49.1388 52.8349 49.528 53.2531 49.9837 53.53C50.4393 53.807 50.9144 53.9506 51.4088 53.9608C51.9074 53.9558 52.3785 53.8253 52.8221 53.5692ZM61.9214 49.7235C61.2561 50.1077 60.5643 50.3014 59.8461 50.3046C59.1376 50.3022 58.4676 50.1104 57.8361 49.7293C57.199 49.3385 56.6606 48.7622 56.2208 48.0004C55.7865 47.2482 55.5526 46.509 55.5189 45.7827C55.4894 45.0411 55.6507 44.363 56.0029 43.7482C56.3592 43.1182 56.8942 42.5972 57.6078 42.1852C58.2828 41.7955 58.9573 41.6053 59.6313 41.6148C60.3054 41.6242 60.9297 41.8037 61.5045 42.1534C62.0833 42.4878 62.5536 42.9684 62.9155 43.5952C62.9934 43.7302 63.0547 43.8363 63.0992 43.9134C63.1438 43.9906 63.2085 44.1139 63.2935 44.2834L57.58 47.5821C57.8817 48.0379 58.2376 48.3982 58.6476 48.6629C59.0617 48.9124 59.4987 49.0458 59.9587 49.0631C60.4283 49.0748 60.8849 48.9526 61.3285 48.6965C61.83 48.407 62.1826 48.0491 62.3865 47.6228C62.5904 47.1965 62.6554 46.7412 62.5814 46.2567L63.7819 45.5636C63.9127 46.0795 63.9336 46.5946 63.8448 47.1088C63.7559 47.623 63.553 48.1066 63.2359 48.5596C62.9285 49.0071 62.4904 49.3951 61.9214 49.7235ZM57.0516 46.6335L61.5646 44.028C61.1627 43.3986 60.6486 43.0204 60.0224 42.8933C59.3961 42.7663 58.7793 42.8782 58.1718 43.2289C57.5932 43.5629 57.1803 44.0392 56.933 44.6577C56.6899 45.2609 56.7294 45.9195 57.0516 46.6335ZM66.3969 46.9082L62.2547 39.7337L63.3541 39.099L64.2487 40.4147C64.1977 39.8141 64.318 39.2432 64.6098 38.7019C64.9016 38.1606 65.3801 37.6978 66.0455 37.3137L66.7804 38.5866L66.4477 38.7786C65.657 39.2352 65.1913 39.7869 65.0505 40.4339C64.9097 41.0809 65.0676 41.7998 65.5242 42.5905L67.612 46.2067L66.3969 46.9082ZM71.2177 44.1249L67.0755 36.9504L68.1749 36.3157L68.9904 37.5613C68.9602 36.9745 69.0869 36.4256 69.3705 35.9147C69.6541 35.4038 70.0708 34.9897 70.6204 34.6723C71.469 34.1824 72.2944 34.0531 73.0964 34.2843C73.9026 34.5003 74.6147 35.1435 75.2327 36.2139L77.6545 40.4086L76.4395 41.1101L74.0928 37.0455C73.6641 36.303 73.1869 35.8328 72.6612 35.6349C72.1355 35.437 71.564 35.5162 70.9469 35.8725C70.3297 36.2288 69.9446 36.7533 69.7917 37.4459C69.6428 38.1233 69.8077 38.8767 70.2865 39.706L72.4328 43.4234L71.2177 44.1249ZM31.8976 86.4563L26.0518 76.331L27.2668 75.6295L33.1126 85.7548L31.8976 86.4563ZM34.7532 84.8076L30.6111 77.6331L31.7104 76.9984L32.5259 78.244C32.4957 77.6572 32.6224 77.1083 32.906 76.5974C33.1896 76.0865 33.6063 75.6724 34.1559 75.355C35.0045 74.8651 35.8299 74.7357 36.632 74.967C37.4381 75.183 38.1502 75.8262 38.7682 76.8966L41.19 81.0913L39.975 81.7928L37.6283 77.7282C37.1996 76.9857 36.7224 76.5155 36.1967 76.3176C35.671 76.1196 35.0995 76.1988 34.4824 76.5552C33.8652 76.9115 33.4802 77.436 33.3272 78.1286C33.1783 78.806 33.3432 79.5594 33.822 80.3887L35.9683 84.1061L34.7532 84.8076ZM45.4461 78.634C44.7904 79.0126 44.1826 79.1514 43.6228 79.0503C43.063 78.9492 42.5437 78.484 42.0649 77.6547L39.785 73.7058L38.5411 74.424L37.9481 73.397L39.1921 72.6788L38.1983 70.9575L39.4133 70.256L40.4071 71.9773L42.4177 70.8165L43.0107 71.8435L41.0001 73.0043L43.2799 76.9532C43.5416 77.4064 43.8114 77.6621 44.0892 77.7202C44.3615 77.7688 44.7291 77.6594 45.192 77.3922L45.9586 76.9495L46.5599 77.991L45.4461 78.634ZM50.8989 75.7173C50.2336 76.1014 49.5418 76.2951 48.8236 76.2983C48.1151 76.2959 47.4451 76.1042 46.8136 75.723C46.1765 75.3323 45.6381 74.756 45.1983 73.9942C44.764 73.242 44.5301 72.5028 44.4964 71.7764C44.4669 71.0349 44.6282 70.3567 44.9804 69.7419C45.3367 69.1119 45.8717 68.591 46.5853 68.179C47.2603 67.7892 47.9348 67.5991 48.6088 67.6085C49.2829 67.6179 49.9073 67.7975 50.482 68.1471C51.0608 68.4815 51.5311 68.9621 51.893 69.5889C51.9709 69.7239 52.0322 69.83 52.0767 69.9072C52.1213 69.9843 52.186 70.1076 52.271 70.2771L46.5575 73.5758C46.8592 74.0317 47.2151 74.3919 47.6251 74.6567C48.0392 74.9062 48.4762 75.0396 48.9362 75.0569C49.4058 75.0686 49.8624 74.9464 50.306 74.6903C50.8075 74.4008 51.1601 74.0429 51.364 73.6166C51.5679 73.1903 51.6329 72.7349 51.5589 72.2505L52.7595 71.5573C52.8902 72.0733 52.9111 72.5884 52.8223 73.1025C52.7334 73.6167 52.5305 74.1003 52.2134 74.5534C51.9061 75.0008 51.4679 75.3888 50.8989 75.7173ZM46.0291 72.6273L50.5421 70.0217C50.1402 69.3923 49.6261 69.0141 48.9999 68.8871C48.3737 68.76 47.7568 68.8719 47.1493 69.2227C46.5707 69.5567 46.1578 70.033 45.9105 70.6514C45.6674 71.2547 45.7069 71.9133 46.0291 72.6273ZM55.3744 72.9019L51.2322 65.7275L52.3316 65.0928L53.2262 66.4085C53.1752 65.8079 53.2955 65.2369 53.5873 64.6956C53.8791 64.1543 54.3576 63.6916 55.023 63.3074L55.7579 64.5803L55.4252 64.7724C54.6345 65.2289 54.1688 65.7807 54.028 66.4277C53.8872 67.0747 54.0451 67.7935 54.5017 68.5843L56.5895 72.2004L55.3744 72.9019ZM60.5858 69.8932L57.0365 63.7457L55.9517 64.372L55.3587 63.345L56.4436 62.7187L55.8924 61.764C55.4916 61.0697 55.3728 60.4632 55.5363 59.9446C55.6997 59.4259 56.1141 58.9745 56.7795 58.5904L57.5027 58.1728L58.104 59.2143L57.5688 59.5233C57.2024 59.7348 56.9865 59.9623 56.9213 60.2057C56.8505 60.4394 56.9182 60.7347 57.1241 61.0914L57.6586 62.0172L59.4233 60.9983L60.0162 62.0253L58.2516 63.0442L61.8008 69.1917L60.5858 69.8932ZM66.7825 66.5469C66.2907 66.8309 65.795 67.0078 65.2953 67.0777C64.7957 67.1476 64.3307 67.0882 63.9003 66.8995C63.474 66.6956 63.1216 66.3526 62.8433 65.8704C62.5204 65.3111 62.4089 64.784 62.5089 64.2891C62.6033 63.7846 62.8451 63.3236 63.2341 62.9062C63.6271 62.4735 64.0985 62.0985 64.6482 61.7812L66.5864 60.6621C66.2969 60.1607 65.9819 59.8154 65.6413 59.6263C65.3103 59.4317 64.9736 59.3496 64.6313 59.3801C64.2889 59.4107 63.9537 59.5206 63.6259 59.7099C63.1534 59.9827 62.8103 60.335 62.5968 60.7669C62.3874 61.1835 62.3756 61.6532 62.5616 62.1758L61.3177 62.894C61.0653 62.3454 60.9855 61.8064 61.0785 61.2771C61.1714 60.7477 61.3916 60.2605 61.739 59.8156C62.0906 59.3555 62.5219 58.978 63.0329 58.6829C63.7562 58.2653 64.4175 58.0635 65.017 58.0774C65.6109 58.0817 66.1372 58.2471 66.5958 58.5738C67.0544 58.9005 67.4396 59.3338 67.7513 59.8738L69.0207 62.0724C69.2267 62.4292 69.426 62.6742 69.6186 62.8073C69.8111 62.9404 70.097 62.9233 70.476 62.7558L71.094 63.8262C70.7758 64.01 70.4642 64.1384 70.1593 64.2116C69.8489 64.2751 69.5491 64.2682 69.2601 64.1907C68.9752 64.0981 68.7051 63.9197 68.4498 63.6557C68.4425 64.1999 68.3075 64.7343 68.0446 65.2589C67.7914 65.778 67.3707 66.2073 66.7825 66.5469ZM66.3776 65.4114C66.8598 65.133 67.1952 64.7786 67.3839 64.3482C67.567 63.9082 67.6292 63.448 67.5704 62.9677C67.5213 62.4817 67.377 62.0314 67.1376 61.6168L67.1293 61.6023L65.2922 62.6629C64.9547 62.8578 64.6588 63.0801 64.4044 63.3298C64.1444 63.5699 63.9785 63.8393 63.9066 64.1379C63.8292 64.4269 63.8879 64.7402 64.0828 65.0777C64.3333 65.5116 64.6713 65.7408 65.0968 65.7651C65.5167 65.7798 65.9437 65.6619 66.3776 65.4114ZM75.3538 61.5983C74.6788 61.988 73.9774 62.1872 73.2496 62.196C72.5314 62.1992 71.8518 62.013 71.2106 61.6374C70.5639 61.2522 70.0207 60.6787 69.5808 59.9169C69.1521 59.1744 68.9306 58.4344 68.9163 57.6969C68.8964 56.9498 69.0646 56.2613 69.4209 55.6313C69.7772 55.0013 70.3073 54.483 71.0112 54.0766C71.8598 53.5867 72.7015 53.3965 73.5361 53.506C74.3805 53.61 75.0941 53.9887 75.6771 54.6421L74.4332 55.3603C74.0806 54.9724 73.6467 54.7665 73.1315 54.7426C72.6106 54.709 72.0995 54.8369 71.598 55.1264C71.087 55.4215 70.7302 55.7946 70.5278 56.2458C70.3254 56.6969 70.2523 57.1827 70.3085 57.7031C70.3743 58.218 70.5464 58.7165 70.8248 59.1987C71.131 59.7291 71.5051 60.1431 71.947 60.4408C72.3889 60.7386 72.8502 60.903 73.331 60.934C73.8214 60.9594 74.2932 60.8413 74.7464 60.5796C75.2479 60.2901 75.6171 59.9162 75.8539 59.458C76.0853 58.9902 76.1183 58.5018 75.9531 57.9929L77.197 57.2747C77.379 57.8125 77.4263 58.351 77.3389 58.89C77.2515 59.429 77.0425 59.9354 76.7117 60.4093C76.3754 60.8734 75.9228 61.2698 75.3538 61.5983ZM83.097 57.1278C82.4316 57.5119 81.7398 57.7056 81.0216 57.7088C80.3131 57.7064 79.6431 57.5147 79.0116 57.1335C78.3745 56.7427 77.8361 56.1664 77.3963 55.4046C76.962 54.6525 76.7281 53.9132 76.6945 53.1869C76.6649 52.4454 76.8262 51.7672 77.1785 51.1524C77.5347 50.5224 78.0697 50.0014 78.7833 49.5894C79.4583 49.1997 80.1328 49.0096 80.8068 49.019C81.4809 49.0284 82.1053 49.2079 82.68 49.5576C83.2588 49.892 83.7291 50.3726 84.091 50.9994C84.169 51.1344 84.2302 51.2405 84.2747 51.3176C84.3193 51.3948 84.3841 51.5181 84.4691 51.6876L78.7555 54.9863C79.0572 55.4421 79.4131 55.8024 79.8231 56.0671C80.2372 56.3166 80.6742 56.4501 81.1342 56.4673C81.6038 56.4791 82.0604 56.3569 82.504 56.1008C83.0055 55.8113 83.3581 55.4534 83.562 55.0271C83.7659 54.6008 83.8309 54.1454 83.7569 53.6609L84.9575 52.9678C85.0882 53.4838 85.1091 53.9988 85.0203 54.513C84.9314 55.0272 84.7285 55.5108 84.4114 55.9638C84.1041 56.4113 83.6659 56.7993 83.097 57.1278ZM78.2271 54.0378L82.7401 51.4322C82.3382 50.8028 81.8241 50.4246 81.1979 50.2976C80.5717 50.1705 79.9548 50.2824 79.3473 50.6331C78.7687 50.9672 78.3558 51.4434 78.1086 52.0619C77.8654 52.6651 77.9049 53.3238 78.2271 54.0378ZM90.4209 52.8993C89.852 53.2277 89.2852 53.4264 88.7207 53.4952C88.1505 53.5544 87.6226 53.4863 87.137 53.2909C86.6554 53.0804 86.2389 52.7487 85.8875 52.2959L87.1314 51.5777C87.4257 51.9092 87.8127 52.1229 88.2923 52.2189C88.7761 52.2996 89.2928 52.1813 89.8425 51.8639C90.3535 51.5688 90.6684 51.2456 90.787 50.8943C90.9 50.5333 90.8702 50.2034 90.6976 49.9044C90.5306 49.6151 90.3302 49.4351 90.0965 49.3643C89.8724 49.288 89.6031 49.2892 89.2886 49.3679C88.9781 49.4315 88.6077 49.536 88.1775 49.6816C87.7223 49.8286 87.2602 49.9411 86.7909 50.0192C86.3161 50.0876 85.8782 50.064 85.4772 49.9484C85.0761 49.8328 84.7531 49.5628 84.5081 49.1385C84.2632 48.7142 84.1549 48.2817 84.1833 47.841C84.2118 47.4003 84.3659 46.977 84.6459 46.5711C84.9355 46.1596 85.3454 45.8008 85.8758 45.4945C86.6376 45.0547 87.371 44.8885 88.0758 44.9958C88.7847 45.088 89.381 45.4637 89.8646 46.1232L88.664 46.8163C88.4042 46.4777 88.0809 46.2851 87.6939 46.2385C87.3111 46.1767 86.8979 46.2738 86.4543 46.5299C86.0203 46.7804 85.7357 47.0669 85.6004 47.3893C85.4748 47.7061 85.4982 48.014 85.6708 48.313C85.7822 48.5058 85.9443 48.6308 86.1573 48.6878C86.3702 48.7449 86.6299 48.7493 86.9363 48.701C87.2523 48.6471 87.6062 48.5585 87.9979 48.4352C88.5357 48.2532 89.0441 48.1205 89.523 48.0368C90.0018 47.9532 90.4425 47.9817 90.8451 48.1221C91.242 48.2529 91.5881 48.5739 91.8831 49.085C92.1377 49.5037 92.2468 49.9486 92.2102 50.4198C92.1833 50.8853 92.0181 51.3342 91.7148 51.7665C91.4212 52.1932 90.9899 52.5708 90.4209 52.8993Z" fill="#354156"/>
</svg>
