<svg width="98" height="20" viewBox="0 0 98 20" fill="none" xmlns="http://www.w3.org/2000/svg">
<g clip-path="url(#clip0_555_12290)">
<path d="M25.8983 7.45312C26.2238 6.28229 26.0893 5.38646 25.4947 4.76562C24.9002 4.14479 23.8609 3.83229 22.3769 3.82812H16.69L13.2617 16.1802H16.0151L17.4016 11.1802H19.2198C19.5525 11.1642 19.884 11.2294 20.1832 11.3698C20.3046 11.4428 20.4059 11.5428 20.4784 11.6614C20.551 11.78 20.5926 11.9136 20.5998 12.0511L21.0966 16.1802H24.0475L23.5658 12.3448C23.4704 11.4885 23.0603 10.9844 22.3486 10.8323C23.2097 10.6042 23.9954 10.1681 24.6312 9.56564C25.2455 8.98498 25.6835 8.25469 25.8983 7.45312ZM23.2621 7.49688C23.1434 8.0033 22.8204 8.44384 22.3638 8.72188C21.9298 8.98438 21.2963 9.11355 20.4913 9.11355H17.9354L18.8336 5.88646H21.3918C22.1945 5.88646 22.7457 6.01771 23.0495 6.27812C23.3532 6.53855 23.4183 6.95105 23.2621 7.49688Z" fill="white"/>
<path d="M33.8476 7.35558L33.4981 8.60558C33.3526 8.15884 33.0446 7.77728 32.6303 7.53058C32.1471 7.25211 31.59 7.11458 31.0269 7.13475C30.2368 7.13495 29.4605 7.33315 28.7747 7.70975C28.0282 8.12078 27.3835 8.6823 26.8848 9.35558C26.3352 10.0835 25.9327 10.904 25.6979 11.7743C25.4517 12.549 25.3997 13.3684 25.546 14.166C25.6578 14.796 26.0088 15.3637 26.5311 15.7597C27.0989 16.1495 27.7867 16.3447 28.4839 16.314C29.1065 16.3153 29.7221 16.1873 30.2883 15.9389C30.8546 15.6903 31.3581 15.3272 31.7646 14.8743L31.4044 16.1785H34.0883L36.5358 7.35558H33.8476ZM32.6282 11.7306C32.4621 12.449 32.0927 13.1094 31.5606 13.639C31.3315 13.8543 31.0599 14.0237 30.762 14.1375C30.464 14.2512 30.1454 14.307 29.8248 14.3014C29.1414 14.3014 28.6813 14.0931 28.434 13.6493C28.1867 13.2056 28.1801 12.5869 28.4058 11.7743C28.5774 11.0495 28.9527 10.3837 29.4907 9.84933C29.7206 9.62747 29.9942 9.45185 30.2956 9.33273C30.597 9.21362 30.9201 9.15338 31.246 9.15558C31.9143 9.15558 32.3699 9.3785 32.6042 9.82225C32.8386 10.266 32.8625 10.8931 32.6325 11.7285L32.6282 11.7306Z" fill="white"/>
<path d="M46.1105 7.35938H38.3798L37.8091 9.41771H42.3091L36.3922 14.374L35.8867 16.1927H43.8713L44.442 14.1344H39.6143L45.6289 9.10729L46.1105 7.35938Z" fill="white"/>
<path d="M54.5663 7.68256C53.8484 7.28866 53.0295 7.09661 52.2034 7.12839C51.2716 7.12065 50.3493 7.30984 49.5021 7.68256C48.6781 8.05149 47.954 8.59838 47.3866 9.28048C46.7939 9.99597 46.3658 10.8238 46.1303 11.7097C45.877 12.4974 45.8457 13.3355 46.0391 14.1388C46.2168 14.8055 46.658 15.3795 47.2694 15.7388C47.8914 16.1069 48.687 16.2909 49.6561 16.2909C50.578 16.2987 51.4902 16.1101 52.3271 15.7388C53.1486 15.3698 53.8692 14.822 54.4317 14.1388C55.0256 13.4238 55.4546 12.5958 55.6902 11.7097C55.944 10.9219 55.9746 10.0834 55.7792 9.28048C55.6083 8.61593 55.1728 8.04221 54.5663 7.68256ZM52.9997 11.7054C52.7589 12.5721 52.4052 13.2221 51.9278 13.6513C51.4672 14.0727 50.852 14.3025 50.2159 14.2909C48.8129 14.2909 48.3507 13.4291 48.8294 11.7054C49.0652 10.8499 49.4269 10.2048 49.9144 9.77006C50.3809 9.34157 51.0046 9.10723 51.6501 9.11798C52.3184 9.11798 52.7741 9.32631 53.0084 9.77006C53.2428 10.2138 53.2362 10.8492 52.9997 11.7054Z" fill="white"/>
<path d="M83.7936 7.35373L83.4443 8.60373C83.2988 8.157 82.9908 7.77543 82.5765 7.52873C82.0941 7.24774 81.5369 7.108 80.9731 7.12665C80.1816 7.1283 79.4045 7.32867 78.7187 7.7079C77.9716 8.11885 77.3261 8.68035 76.8266 9.35373C76.278 10.0822 75.8754 10.9024 75.6397 11.7725C75.3957 12.5475 75.3437 13.3665 75.4879 14.1641C75.5997 14.7941 75.9506 15.3619 76.473 15.7579C77.0482 16.1509 77.7446 16.3461 78.4496 16.3121C79.0583 16.3099 79.6596 16.1835 80.2136 15.9412C80.7853 15.6949 81.2929 15.3299 81.6999 14.8725L81.3397 16.1767H84.0237L86.4733 7.35373H83.7936ZM82.5678 11.7288C82.4026 12.4469 82.0339 13.1073 81.5024 13.6371C81.2728 13.8518 81.0013 14.0208 80.7033 14.1346C80.4055 14.2482 80.0871 14.3043 79.7666 14.2996C79.081 14.2996 78.6211 14.0912 78.3737 13.6475C78.1263 13.2038 78.122 12.585 78.3454 11.7725C78.518 11.048 78.8931 10.3825 79.4304 9.84749C79.6608 9.62575 79.9348 9.45023 80.2365 9.33113C80.5382 9.21203 80.8616 9.15173 81.1878 9.15373C81.8561 9.15373 82.3088 9.37595 82.5461 9.8204C82.7978 10.2517 82.8043 10.8912 82.5678 11.7267V11.7288Z" fill="white"/>
<path d="M64.1209 9.73276L64.8066 7.33068C64.5175 7.205 64.2017 7.14579 63.8845 7.15776C63.2643 7.15844 62.6546 7.31195 62.114 7.6036C61.6208 7.86299 61.1929 8.22279 60.8599 8.65776L61.2135 7.36401H58.5317L56.0625 16.1869H58.7834L60.0614 11.5807C60.2111 10.966 60.5616 10.4135 61.0617 10.0036C61.5758 9.61794 62.2147 9.41811 62.8668 9.43902C63.3036 9.43725 63.7342 9.53811 64.1209 9.73276Z" fill="white"/>
<path d="M73.6016 7.72874C73.0465 7.32138 72.3599 7.11418 71.6619 7.14333C70.9827 7.14406 70.3134 7.29972 69.7092 7.5975C69.1037 7.88336 68.5818 8.30934 68.1903 8.83707L68.2012 8.77666L68.6589 7.36207H65.9903L65.3089 9.81416C65.3089 9.84124 65.2937 9.87041 65.2872 9.8975L62.4883 20.0017H65.2221L66.6346 14.91C66.7696 15.3592 67.0807 15.7408 67.5025 15.9746C67.992 16.2446 68.5505 16.3774 69.1147 16.3579C69.9071 16.36 70.6875 16.1709 71.3842 15.8079C72.1256 15.4156 72.7656 14.868 73.2567 14.2058C73.7969 13.4816 74.1921 12.6669 74.4218 11.8038C74.6698 11.0176 74.7262 10.1871 74.5867 9.37666C74.4725 8.73249 74.1233 8.14834 73.6016 7.72874ZM71.6685 11.7621C71.5016 12.4691 71.1345 13.118 70.6074 13.6371C70.141 14.0654 69.517 14.2991 68.8716 14.2871C68.199 14.2871 67.7434 14.0641 67.5025 13.6246C67.2617 13.185 67.2486 12.5517 67.4851 11.7162C67.6542 10.9923 68.0299 10.3279 68.5701 9.7975C68.7995 9.58231 69.0709 9.41266 69.3688 9.29828C69.6667 9.18389 69.9851 9.12699 70.3058 9.13083C70.9568 9.13083 71.4102 9.36416 71.6467 9.82457C71.8832 10.285 71.8984 10.9371 71.6685 11.7621Z" fill="white"/>
<path d="M97.8858 7.07031H95.0651L94.6312 7.94115C94.5965 7.98489 94.5638 8.02865 94.5249 8.08281L94.4793 8.15365L91.0076 12.8161L90.2874 7.36406H87.4406L88.8878 15.7265L85.6875 20.0037H88.4278L89.2198 18.9182C89.2437 18.8849 89.2676 18.8578 89.2892 18.8224L90.2157 17.5537L90.2461 17.5203L94.3838 11.8515L97.8858 7.07031Z" fill="white"/>
<path d="M6.2913 5.24167L5.4668 8.125L10.1187 5.22709L7.08109 16.1833H10.1643L14.6535 0L6.2913 5.24167Z" fill="#3395FF"/>
<path d="M1.28014 11.5714L0 16.1797H6.32479L8.9133 6.80469L1.28014 11.5714Z" fill="white"/>
</g>
<defs>
<clipPath id="clip0_555_12290">
<rect width="98" height="20" fill="white"/>
</clipPath>
</defs>
</svg>
