<svg width="133" height="26" viewBox="0 0 133 26" fill="none" xmlns="http://www.w3.org/2000/svg">
<path d="M125.655 20.1729C124.332 20.1729 123.144 19.8828 122.093 19.3026C121.041 18.7224 120.207 17.9066 119.591 16.855C118.993 15.7853 118.693 14.5343 118.693 13.1021C118.693 11.6335 119.011 10.3734 119.645 9.32189C120.28 8.27034 121.132 7.46354 122.202 6.9015C123.271 6.32133 124.459 6.03125 125.764 6.03125C127.088 6.03125 128.275 6.32133 129.327 6.9015C130.396 7.46354 131.24 8.27034 131.856 9.32189C132.49 10.3734 132.808 11.6335 132.808 13.1021C132.808 14.4618 132.5 15.6766 131.883 16.7462C131.285 17.8159 130.442 18.659 129.354 19.2754C128.284 19.8737 127.051 20.1729 125.655 20.1729ZM125.683 17.5077C126.462 17.5077 127.142 17.3173 127.722 16.9366C128.321 16.5377 128.792 16.0029 129.136 15.3321C129.481 14.6613 129.653 13.8998 129.653 13.0477C129.653 12.1593 129.481 11.3887 129.136 10.7361C128.792 10.0834 128.321 9.58478 127.722 9.24031C127.142 8.8777 126.471 8.6964 125.71 8.6964C124.912 8.6964 124.214 8.88677 123.616 9.2675C123.036 9.64824 122.591 10.174 122.283 10.8448C121.975 11.4975 121.821 12.2499 121.821 13.1021C121.821 14.0267 121.993 14.8244 122.338 15.4952C122.7 16.1479 123.172 16.6465 123.752 16.991C124.35 17.3355 124.994 17.5077 125.683 17.5077Z" fill="#323232"/>
<path d="M110.859 19.8465V6.35759H113.851L113.905 8.56042C114.359 7.76269 114.966 7.14626 115.727 6.71114C116.507 6.25788 117.404 6.03125 118.42 6.03125V9.2675H117.577C116.344 9.2675 115.428 9.57572 114.83 10.1921C114.232 10.8086 113.932 11.7695 113.932 13.0749V19.8465H110.859Z" fill="#323232"/>
<path d="M96.1445 19.8493V0.8125H102.943C104.267 0.8125 105.427 1.03006 106.424 1.46519C107.422 1.88219 108.201 2.50768 108.763 3.34167C109.325 4.17566 109.606 5.20002 109.606 6.41475C109.606 7.62948 109.316 8.66291 108.736 9.51503C108.174 10.349 107.394 10.9836 106.397 11.4187C105.4 11.8357 104.249 12.0442 102.943 12.0442H99.2448V19.8493H96.1445ZM99.2448 9.40625H102.862C104.185 9.40625 105.11 9.14336 105.636 8.61758C106.18 8.07367 106.452 7.3394 106.452 6.41475C106.452 5.50824 106.18 4.78303 105.636 4.23912C105.11 3.69521 104.185 3.42326 102.862 3.42326H99.2448V9.40625Z" fill="#323232"/>
<path d="M83.1713 25.8313L86.1356 19.25L80.5605 6.35938H83.9872L87.7945 15.9865L91.7379 6.35938H94.9741L86.4076 25.8313H83.1713Z" fill="#323232"/>
<path d="M74.512 19.8493V8.94392H72.7715V6.36036H74.512V5.08218C74.512 3.55924 74.8927 2.47142 75.6542 1.81873C76.4157 1.14791 77.4763 0.8125 78.8361 0.8125H80.0599V3.45045H79.3256C78.691 3.45045 78.2378 3.57737 77.9658 3.83119C77.712 4.06688 77.5851 4.48388 77.5851 5.08218V6.36036H80.3046V8.94392H77.5851V19.8493H74.512Z" fill="#323232"/>
<path d="M70.2662 4.21618C69.7042 4.21618 69.2237 4.01674 68.8249 3.61788C68.426 3.21901 68.2266 2.73856 68.2266 2.17652C68.2266 1.61448 68.426 1.1431 68.8249 0.762362C69.2237 0.363496 69.7042 0.164062 70.2662 0.164062C70.8283 0.164062 71.3087 0.363496 71.7076 0.762362C72.1064 1.1431 72.3059 1.61448 72.3059 2.17652C72.3059 2.73856 72.1064 3.21901 71.7076 3.61788C71.3087 4.01674 70.8283 4.21618 70.2662 4.21618ZM68.7161 19.8535V6.36461H71.8164V19.8535H68.7161Z" fill="#323232"/>
<path d="M63.3906 19.8493V0.8125H66.4637V19.8493H63.3906Z" fill="#323232"/>
<path d="M47.7344 25.8295V6.35759H50.7259L50.8075 8.34286C51.297 7.65391 51.9406 7.10094 52.7383 6.68394C53.5361 6.24881 54.4516 6.03125 55.4851 6.03125C56.8086 6.03125 57.9417 6.34853 58.8845 6.98309C59.8454 7.59952 60.5797 8.44258 61.0873 9.51226C61.6131 10.5819 61.876 11.7695 61.876 13.0749C61.876 14.3802 61.6131 15.5768 61.0873 16.6647C60.5615 17.7343 59.8182 18.5865 58.8573 19.221C57.9145 19.8556 56.7814 20.1729 55.4579 20.1729C54.3338 20.1729 53.3729 19.9462 52.5752 19.493C51.7956 19.0216 51.2063 18.4777 50.8075 17.8612V25.8295H47.7344ZM54.778 17.4805C55.5576 17.4805 56.2465 17.2901 56.8448 16.9094C57.4431 16.5105 57.9055 15.9757 58.2318 15.3049C58.5763 14.6341 58.7485 13.8907 58.7485 13.0749C58.7485 12.1865 58.5672 11.4159 58.2046 10.7632C57.8601 10.1106 57.3887 9.61198 56.7904 9.2675C56.1921 8.9049 55.5213 8.72359 54.778 8.72359C54.0165 8.72359 53.3366 8.91396 52.7383 9.2947C52.14 9.6573 51.6686 10.174 51.3242 10.8448C50.9797 11.4975 50.8075 12.2499 50.8075 13.1021C50.8075 13.9179 50.9706 14.6613 51.297 15.3321C51.6414 15.9848 52.1038 16.5105 52.6839 16.9094C53.2822 17.2901 53.9802 17.4805 54.778 17.4805Z" fill="#323232"/>
<path d="M24.0156 19.8465V6.35759H27.0071L27.0615 8.04371C27.5148 7.37289 28.0949 6.87431 28.802 6.54796C29.5091 6.20349 30.2796 6.03125 31.1136 6.03125C32.147 6.03125 33.0808 6.24881 33.9147 6.68394C34.7669 7.10094 35.4196 7.76269 35.8728 8.6692C36.3442 7.83521 36.9788 7.19159 37.7765 6.73833C38.5924 6.26694 39.4807 6.03125 40.4416 6.03125C41.4932 6.03125 42.4269 6.24881 43.2428 6.68394C44.0768 7.10094 44.7295 7.74456 45.2008 8.61481C45.6722 9.48507 45.9079 10.5819 45.9079 11.9055V19.8465H42.862V12.3134C42.862 11.1712 42.5991 10.2828 42.0734 9.64824C41.5657 9.01368 40.8042 8.6964 39.789 8.6964C38.7555 8.6964 37.9487 9.04087 37.3686 9.72982C36.7884 10.4006 36.4983 11.3344 36.4983 12.5309V19.8465H33.4524V12.3134C33.4524 11.153 33.1805 10.2647 32.6366 9.64824C32.1108 9.01368 31.3493 8.6964 30.3522 8.6964C29.4638 8.6964 28.6932 9.01368 28.0405 9.64824C27.406 10.2647 27.0887 11.2256 27.0887 12.5309V19.8465H24.0156Z" fill="#323232"/>
<path d="M15.9727 20.1729C14.6129 20.1729 13.4254 19.8737 12.4101 19.2754C11.3948 18.659 10.5971 17.825 10.0169 16.7734C9.45485 15.7037 9.17383 14.48 9.17383 13.1021C9.17383 11.6698 9.45485 10.4278 10.0169 9.37628C10.5971 8.32473 11.3948 7.50887 12.4101 6.9287C13.4435 6.3304 14.6401 6.03125 15.9999 6.03125C17.3234 6.03125 18.4747 6.32133 19.4537 6.9015C20.4327 7.46354 21.2033 8.24314 21.7653 9.24031C22.3273 10.2375 22.6084 11.3706 22.6084 12.6397C22.6084 12.8936 22.5993 13.1202 22.5812 13.3196C22.5812 13.519 22.563 13.7366 22.5268 13.9723H12.2741C12.3285 14.6794 12.5098 15.3139 12.818 15.876C13.1262 16.4199 13.5432 16.846 14.069 17.1542C14.6129 17.4624 15.2293 17.6165 15.9183 17.6165C16.6616 17.6165 17.2871 17.4533 17.7948 17.127C18.3205 16.8006 18.7285 16.3292 19.0186 15.7128H22.2548C22.001 16.5287 21.5931 17.272 21.031 17.9428C20.4871 18.6137 19.7891 19.1576 18.937 19.5746C18.103 19.9734 17.1149 20.1729 15.9727 20.1729ZM12.3013 11.8239H19.4537C19.4356 10.8267 19.082 10.038 18.3931 9.45787C17.7041 8.8777 16.8792 8.58762 15.9183 8.58762C15.048 8.58762 14.2594 8.85051 13.5523 9.37628C12.8633 9.90206 12.4463 10.7179 12.3013 11.8239Z" fill="#323232"/>
<path d="M6.25148 19.8461C4.87358 19.8461 3.82203 19.5107 3.09681 18.8399C2.3716 18.1691 2.009 17.0994 2.009 15.6308V8.94076H0.078125V6.3572H2.009V3.09375H5.10927V6.3572H8.39992V8.94076H5.10927V15.658C5.10927 16.2745 5.25432 16.7005 5.5444 16.9362C5.83448 17.1538 6.26961 17.2626 6.84978 17.2626H8.39992V19.8461H6.25148Z" fill="#323232"/>
</svg>
