<svg width="41" height="42" viewBox="0 0 41 42" fill="none" xmlns="http://www.w3.org/2000/svg">
<rect y="0.570312" width="40.8631" height="40.8631" rx="20.4316" fill="url(#paint0_linear_503_170207)"/>
<path d="M31.5018 16.5174C31.5018 17.302 31.3513 18.0547 31.0502 18.7755C30.7582 19.4962 30.3568 20.1714 29.8459 20.8009C29.3441 21.4304 28.7601 22.0007 28.0941 22.5116C27.4281 23.0225 26.721 23.4605 25.9729 23.8254C25.2247 24.1904 24.4629 24.4732 23.6874 24.6739C22.9119 24.8746 22.1637 24.975 21.443 24.975C21.37 24.975 21.2924 24.975 21.2103 24.975C21.1373 24.975 21.0643 24.9659 20.9913 24.9476L21.1419 24.1949C21.7349 24.0946 22.3325 23.944 22.9347 23.7433C23.546 23.5335 24.1299 23.278 24.6864 22.9769C25.243 22.6667 25.763 22.3109 26.2466 21.9094C26.7301 21.4989 27.1498 21.0473 27.5056 20.5546C27.8615 20.0528 28.1397 19.5099 28.3405 18.926C28.5503 18.333 28.6552 17.6989 28.6552 17.0237C28.6552 16.3759 28.5503 15.7783 28.3405 15.2309C28.1306 14.6835 27.8341 14.2091 27.4509 13.8076C27.0768 13.4062 26.6252 13.096 26.096 12.877C25.5669 12.6489 24.9784 12.5349 24.3306 12.5349C23.6554 12.5349 22.9621 12.6124 22.2504 12.7675C21.5479 12.9226 20.8499 13.1416 20.1565 13.4244C19.4631 13.7073 18.7925 14.054 18.1448 14.4645C17.5061 14.866 16.9176 15.313 16.3793 15.8057L15.9551 15.3404C16.5755 14.72 17.2826 14.1406 18.0763 13.6023C18.8792 13.0549 19.7186 12.5805 20.5945 12.1791C21.4703 11.7685 22.3553 11.4446 23.2494 11.2074C24.1527 10.9702 25.0194 10.8516 25.8497 10.8516C26.6434 10.8516 27.3825 10.993 28.0667 11.2758C28.7601 11.5495 29.3577 11.9373 29.8595 12.4391C30.3705 12.9409 30.7719 13.5385 31.0639 14.2319C31.3558 14.9253 31.5018 15.6871 31.5018 16.5174ZM20.3755 30.107L17.5563 31.1471V15.8057L20.3755 14.8067V30.107Z" fill="white"/>
<path d="M15.3028 29.1182C15.0929 29.5652 14.8512 29.9074 14.5775 30.1446C14.3037 30.3818 14.0346 30.5551 13.77 30.6646C13.4689 30.7923 13.1587 30.8653 12.8394 30.8836C12.4288 30.8836 12.0913 30.8197 11.8267 30.692C11.5712 30.5643 11.3659 30.3955 11.2108 30.1856C11.0648 29.9758 10.9599 29.7386 10.8961 29.474C10.8413 29.2094 10.8139 28.9402 10.8139 28.6665V21.4953H9.36328L9.95176 20.1268H10.8139V15.2821L13.3184 14.4062V20.1268H15.9186L15.3575 21.4953H13.3184V28.735C13.3184 28.9539 13.3686 29.1273 13.4689 29.255C13.5693 29.3827 13.697 29.4512 13.8521 29.4603C14.0072 29.4603 14.1806 29.401 14.3722 29.2824C14.5638 29.1638 14.7508 28.9722 14.9333 28.7076L15.3028 29.1182Z" fill="white"/>
<defs>
<linearGradient id="paint0_linear_503_170207" x1="20.4316" y1="0.570312" x2="20.4316" y2="41.4334" gradientUnits="userSpaceOnUse">
<stop stop-color="#F7A984"/>
<stop offset="1" stop-color="#EB5A28"/>
</linearGradient>
</defs>
</svg>
