<svg width="1440" height="704" viewBox="0 0 1440 704" fill="none" xmlns="http://www.w3.org/2000/svg">
<line x1="719.5" y1="26.5" x2="0.5" y2="26.5001" stroke="url(#paint0_linear_609_1236)" stroke-linecap="round" stroke-dasharray="6 6"/>
<line x1="0.5" y1="-0.5" x2="719.5" y2="-0.5" transform="matrix(1 8.74228e-08 8.74228e-08 -1 720 26)" stroke="url(#paint1_linear_609_1236)" stroke-linecap="round" stroke-dasharray="6 6"/>
<line x1="719.5" y1="76.5" x2="0.5" y2="76.5001" stroke="url(#paint2_linear_609_1236)" stroke-linecap="round" stroke-dasharray="6 6"/>
<line x1="0.5" y1="-0.5" x2="719.5" y2="-0.5" transform="matrix(1 8.74228e-08 8.74228e-08 -1 720 76)" stroke="url(#paint3_linear_609_1236)" stroke-linecap="round" stroke-dasharray="6 6"/>
<line x1="719.5" y1="126.5" x2="0.5" y2="126.5" stroke="url(#paint4_linear_609_1236)" stroke-linecap="round" stroke-dasharray="6 6"/>
<line x1="0.5" y1="-0.5" x2="719.5" y2="-0.5" transform="matrix(1 8.74228e-08 8.74228e-08 -1 720 126)" stroke="url(#paint5_linear_609_1236)" stroke-linecap="round" stroke-dasharray="6 6"/>
<line x1="719.5" y1="176.5" x2="0.5" y2="176.5" stroke="url(#paint6_linear_609_1236)" stroke-linecap="round" stroke-dasharray="6 6"/>
<line x1="0.5" y1="-0.5" x2="719.5" y2="-0.5" transform="matrix(1 8.74228e-08 8.74228e-08 -1 720 176)" stroke="url(#paint7_linear_609_1236)" stroke-linecap="round" stroke-dasharray="6 6"/>
<line x1="719.5" y1="226.5" x2="0.5" y2="226.5" stroke="url(#paint8_linear_609_1236)" stroke-linecap="round" stroke-dasharray="6 6"/>
<line x1="0.5" y1="-0.5" x2="719.5" y2="-0.5" transform="matrix(1 8.74228e-08 8.74228e-08 -1 720 226)" stroke="url(#paint9_linear_609_1236)" stroke-linecap="round" stroke-dasharray="6 6"/>
<line x1="719.5" y1="276.5" x2="0.5" y2="276.5" stroke="url(#paint10_linear_609_1236)" stroke-linecap="round" stroke-dasharray="6 6"/>
<line x1="0.5" y1="-0.5" x2="719.5" y2="-0.5" transform="matrix(1 8.74228e-08 8.74228e-08 -1 720 276)" stroke="url(#paint11_linear_609_1236)" stroke-linecap="round" stroke-dasharray="6 6"/>
<line x1="719.5" y1="326.5" x2="0.5" y2="326.5" stroke="url(#paint12_linear_609_1236)" stroke-linecap="round" stroke-dasharray="6 6"/>
<line x1="0.5" y1="-0.5" x2="719.5" y2="-0.5" transform="matrix(1 8.74228e-08 8.74228e-08 -1 720 326)" stroke="url(#paint13_linear_609_1236)" stroke-linecap="round" stroke-dasharray="6 6"/>
<line x1="719.5" y1="376.5" x2="0.5" y2="376.5" stroke="url(#paint14_linear_609_1236)" stroke-linecap="round" stroke-dasharray="6 6"/>
<line x1="0.5" y1="-0.5" x2="719.5" y2="-0.5" transform="matrix(1 8.74228e-08 8.74228e-08 -1 720 376)" stroke="url(#paint15_linear_609_1236)" stroke-linecap="round" stroke-dasharray="6 6"/>
<line x1="719.5" y1="426.5" x2="0.5" y2="426.5" stroke="url(#paint16_linear_609_1236)" stroke-linecap="round" stroke-dasharray="6 6"/>
<line x1="0.5" y1="-0.5" x2="719.5" y2="-0.5" transform="matrix(1 8.74228e-08 8.74228e-08 -1 720 426)" stroke="url(#paint17_linear_609_1236)" stroke-linecap="round" stroke-dasharray="6 6"/>
<line x1="719.5" y1="476.5" x2="0.5" y2="476.5" stroke="url(#paint18_linear_609_1236)" stroke-linecap="round" stroke-dasharray="6 6"/>
<line x1="0.5" y1="-0.5" x2="719.5" y2="-0.5" transform="matrix(1 8.74228e-08 8.74228e-08 -1 720 476)" stroke="url(#paint19_linear_609_1236)" stroke-linecap="round" stroke-dasharray="6 6"/>
<line x1="719.5" y1="526.5" x2="0.5" y2="526.5" stroke="url(#paint20_linear_609_1236)" stroke-linecap="round" stroke-dasharray="6 6"/>
<line x1="0.5" y1="-0.5" x2="719.5" y2="-0.5" transform="matrix(1 8.74228e-08 8.74228e-08 -1 720 526)" stroke="url(#paint21_linear_609_1236)" stroke-linecap="round" stroke-dasharray="6 6"/>
<line x1="719.5" y1="576.5" x2="0.5" y2="576.5" stroke="url(#paint22_linear_609_1236)" stroke-linecap="round" stroke-dasharray="6 6"/>
<line x1="0.5" y1="-0.5" x2="719.5" y2="-0.5" transform="matrix(1 8.74228e-08 8.74228e-08 -1 720 576)" stroke="url(#paint23_linear_609_1236)" stroke-linecap="round" stroke-dasharray="6 6"/>
<line x1="719.5" y1="626.5" x2="0.5" y2="626.5" stroke="url(#paint24_linear_609_1236)" stroke-linecap="round" stroke-dasharray="6 6"/>
<line x1="0.5" y1="-0.5" x2="719.5" y2="-0.5" transform="matrix(1 8.74228e-08 8.74228e-08 -1 720 626)" stroke="url(#paint25_linear_609_1236)" stroke-linecap="round" stroke-dasharray="6 6"/>
<line x1="719.5" y1="676.5" x2="0.5" y2="676.5" stroke="url(#paint26_linear_609_1236)" stroke-linecap="round" stroke-dasharray="6 6"/>
<line x1="0.5" y1="-0.5" x2="719.5" y2="-0.5" transform="matrix(1 8.74228e-08 8.74228e-08 -1 720 676)" stroke="url(#paint27_linear_609_1236)" stroke-linecap="round" stroke-dasharray="6 6"/>
<line x1="0.5" y1="-0.5" x2="511.5" y2="-0.5" transform="matrix(-4.37114e-08 -1 -1 4.37114e-08 0.5 301)" stroke="url(#paint28_linear_609_1236)" stroke-linecap="round" stroke-dasharray="6 6"/>
<line x1="1" y1="301.5" x2="0.999978" y2="812.5" stroke="url(#paint29_linear_609_1236)" stroke-linecap="round" stroke-dasharray="6 6"/>
<line x1="0.5" y1="-0.5" x2="511.5" y2="-0.5" transform="matrix(-4.37114e-08 -1 -1 4.37114e-08 50.5 301)" stroke="url(#paint30_linear_609_1236)" stroke-linecap="round" stroke-dasharray="6 6"/>
<line x1="51" y1="301.5" x2="51" y2="812.5" stroke="url(#paint31_linear_609_1236)" stroke-linecap="round" stroke-dasharray="6 6"/>
<line x1="0.5" y1="-0.5" x2="511.5" y2="-0.5" transform="matrix(-4.37114e-08 -1 -1 4.37114e-08 100.5 301)" stroke="url(#paint32_linear_609_1236)" stroke-linecap="round" stroke-dasharray="6 6"/>
<line x1="101" y1="301.5" x2="101" y2="812.5" stroke="url(#paint33_linear_609_1236)" stroke-linecap="round" stroke-dasharray="6 6"/>
<line x1="0.5" y1="-0.5" x2="511.5" y2="-0.5" transform="matrix(-4.37114e-08 -1 -1 4.37114e-08 150.5 301)" stroke="url(#paint34_linear_609_1236)" stroke-linecap="round" stroke-dasharray="6 6"/>
<line x1="151" y1="301.5" x2="151" y2="812.5" stroke="url(#paint35_linear_609_1236)" stroke-linecap="round" stroke-dasharray="6 6"/>
<line x1="0.5" y1="-0.5" x2="511.5" y2="-0.5" transform="matrix(-4.37114e-08 -1 -1 4.37114e-08 200.5 301)" stroke="url(#paint36_linear_609_1236)" stroke-linecap="round" stroke-dasharray="6 6"/>
<line x1="201" y1="301.5" x2="201" y2="812.5" stroke="url(#paint37_linear_609_1236)" stroke-linecap="round" stroke-dasharray="6 6"/>
<line x1="0.5" y1="-0.5" x2="511.5" y2="-0.5" transform="matrix(-4.37114e-08 -1 -1 4.37114e-08 250.5 301)" stroke="url(#paint38_linear_609_1236)" stroke-linecap="round" stroke-dasharray="6 6"/>
<line x1="251" y1="301.5" x2="251" y2="812.5" stroke="url(#paint39_linear_609_1236)" stroke-linecap="round" stroke-dasharray="6 6"/>
<line x1="0.5" y1="-0.5" x2="511.5" y2="-0.5" transform="matrix(-4.37114e-08 -1 -1 4.37114e-08 300.5 301)" stroke="url(#paint40_linear_609_1236)" stroke-linecap="round" stroke-dasharray="6 6"/>
<line x1="301" y1="301.5" x2="301" y2="812.5" stroke="url(#paint41_linear_609_1236)" stroke-linecap="round" stroke-dasharray="6 6"/>
<line x1="0.5" y1="-0.5" x2="511.5" y2="-0.5" transform="matrix(-4.37114e-08 -1 -1 4.37114e-08 350.5 301)" stroke="url(#paint42_linear_609_1236)" stroke-linecap="round" stroke-dasharray="6 6"/>
<line x1="351" y1="301.5" x2="351" y2="812.5" stroke="url(#paint43_linear_609_1236)" stroke-linecap="round" stroke-dasharray="6 6"/>
<line x1="0.5" y1="-0.5" x2="511.5" y2="-0.5" transform="matrix(-4.37114e-08 -1 -1 4.37114e-08 400.5 301)" stroke="url(#paint44_linear_609_1236)" stroke-linecap="round" stroke-dasharray="6 6"/>
<line x1="401" y1="301.5" x2="401" y2="812.5" stroke="url(#paint45_linear_609_1236)" stroke-linecap="round" stroke-dasharray="6 6"/>
<line x1="0.5" y1="-0.5" x2="511.5" y2="-0.5" transform="matrix(-4.37114e-08 -1 -1 4.37114e-08 450.5 301)" stroke="url(#paint46_linear_609_1236)" stroke-linecap="round" stroke-dasharray="6 6"/>
<line x1="451" y1="301.5" x2="451" y2="812.5" stroke="url(#paint47_linear_609_1236)" stroke-linecap="round" stroke-dasharray="6 6"/>
<line x1="0.5" y1="-0.5" x2="511.5" y2="-0.5" transform="matrix(-4.37114e-08 -1 -1 4.37114e-08 500.5 301)" stroke="url(#paint48_linear_609_1236)" stroke-linecap="round" stroke-dasharray="6 6"/>
<line x1="501" y1="301.5" x2="501" y2="812.5" stroke="url(#paint49_linear_609_1236)" stroke-linecap="round" stroke-dasharray="6 6"/>
<line x1="0.5" y1="-0.5" x2="511.5" y2="-0.5" transform="matrix(-4.37114e-08 -1 -1 4.37114e-08 550.5 301)" stroke="url(#paint50_linear_609_1236)" stroke-linecap="round" stroke-dasharray="6 6"/>
<line x1="551" y1="301.5" x2="551" y2="812.5" stroke="url(#paint51_linear_609_1236)" stroke-linecap="round" stroke-dasharray="6 6"/>
<line x1="0.5" y1="-0.5" x2="511.5" y2="-0.5" transform="matrix(-4.37114e-08 -1 -1 4.37114e-08 600.5 301)" stroke="url(#paint52_linear_609_1236)" stroke-linecap="round" stroke-dasharray="6 6"/>
<line x1="601" y1="301.5" x2="601" y2="812.5" stroke="url(#paint53_linear_609_1236)" stroke-linecap="round" stroke-dasharray="6 6"/>
<line x1="0.5" y1="-0.5" x2="511.5" y2="-0.5" transform="matrix(-4.37114e-08 -1 -1 4.37114e-08 650.5 301)" stroke="url(#paint54_linear_609_1236)" stroke-linecap="round" stroke-dasharray="6 6"/>
<line x1="651" y1="301.5" x2="651" y2="812.5" stroke="url(#paint55_linear_609_1236)" stroke-linecap="round" stroke-dasharray="6 6"/>
<line x1="0.5" y1="-0.5" x2="511.5" y2="-0.5" transform="matrix(-4.37114e-08 -1 -1 4.37114e-08 700.5 301)" stroke="url(#paint56_linear_609_1236)" stroke-linecap="round" stroke-dasharray="6 6"/>
<line x1="701" y1="301.5" x2="701" y2="812.5" stroke="url(#paint57_linear_609_1236)" stroke-linecap="round" stroke-dasharray="6 6"/>
<line x1="0.5" y1="-0.5" x2="511.5" y2="-0.5" transform="matrix(-4.37114e-08 -1 -1 4.37114e-08 750.5 301)" stroke="url(#paint58_linear_609_1236)" stroke-linecap="round" stroke-dasharray="6 6"/>
<line x1="751" y1="301.5" x2="751" y2="812.5" stroke="url(#paint59_linear_609_1236)" stroke-linecap="round" stroke-dasharray="6 6"/>
<line x1="0.5" y1="-0.5" x2="511.5" y2="-0.5" transform="matrix(-4.37114e-08 -1 -1 4.37114e-08 800.5 301)" stroke="url(#paint60_linear_609_1236)" stroke-linecap="round" stroke-dasharray="6 6"/>
<line x1="801" y1="301.5" x2="801" y2="812.5" stroke="url(#paint61_linear_609_1236)" stroke-linecap="round" stroke-dasharray="6 6"/>
<line x1="0.5" y1="-0.5" x2="511.5" y2="-0.5" transform="matrix(-4.37114e-08 -1 -1 4.37114e-08 850.5 301)" stroke="url(#paint62_linear_609_1236)" stroke-linecap="round" stroke-dasharray="6 6"/>
<line x1="851" y1="301.5" x2="851" y2="812.5" stroke="url(#paint63_linear_609_1236)" stroke-linecap="round" stroke-dasharray="6 6"/>
<line x1="0.5" y1="-0.5" x2="511.5" y2="-0.5" transform="matrix(-4.37114e-08 -1 -1 4.37114e-08 900.5 301)" stroke="url(#paint64_linear_609_1236)" stroke-linecap="round" stroke-dasharray="6 6"/>
<line x1="901" y1="301.5" x2="901" y2="812.5" stroke="url(#paint65_linear_609_1236)" stroke-linecap="round" stroke-dasharray="6 6"/>
<line x1="0.5" y1="-0.5" x2="511.5" y2="-0.5" transform="matrix(-4.37114e-08 -1 -1 4.37114e-08 950.5 301)" stroke="url(#paint66_linear_609_1236)" stroke-linecap="round" stroke-dasharray="6 6"/>
<line x1="951" y1="301.5" x2="951" y2="812.5" stroke="url(#paint67_linear_609_1236)" stroke-linecap="round" stroke-dasharray="6 6"/>
<line x1="0.5" y1="-0.5" x2="511.5" y2="-0.5" transform="matrix(-4.37114e-08 -1 -1 4.37114e-08 1000.5 301)" stroke="url(#paint68_linear_609_1236)" stroke-linecap="round" stroke-dasharray="6 6"/>
<line x1="1001" y1="301.5" x2="1001" y2="812.5" stroke="url(#paint69_linear_609_1236)" stroke-linecap="round" stroke-dasharray="6 6"/>
<line x1="0.5" y1="-0.5" x2="511.5" y2="-0.5" transform="matrix(-4.37114e-08 -1 -1 4.37114e-08 1050.5 301)" stroke="url(#paint70_linear_609_1236)" stroke-linecap="round" stroke-dasharray="6 6"/>
<line x1="1051" y1="301.5" x2="1051" y2="812.5" stroke="url(#paint71_linear_609_1236)" stroke-linecap="round" stroke-dasharray="6 6"/>
<line x1="0.5" y1="-0.5" x2="511.5" y2="-0.5" transform="matrix(-4.37114e-08 -1 -1 4.37114e-08 1100.5 301)" stroke="url(#paint72_linear_609_1236)" stroke-linecap="round" stroke-dasharray="6 6"/>
<line x1="1101" y1="301.5" x2="1101" y2="812.5" stroke="url(#paint73_linear_609_1236)" stroke-linecap="round" stroke-dasharray="6 6"/>
<line x1="0.5" y1="-0.5" x2="511.5" y2="-0.5" transform="matrix(-4.37114e-08 -1 -1 4.37114e-08 1150.5 301)" stroke="url(#paint74_linear_609_1236)" stroke-linecap="round" stroke-dasharray="6 6"/>
<line x1="1151" y1="301.5" x2="1151" y2="812.5" stroke="url(#paint75_linear_609_1236)" stroke-linecap="round" stroke-dasharray="6 6"/>
<line x1="0.5" y1="-0.5" x2="511.5" y2="-0.5" transform="matrix(-4.37114e-08 -1 -1 4.37114e-08 1200.5 301)" stroke="url(#paint76_linear_609_1236)" stroke-linecap="round" stroke-dasharray="6 6"/>
<line x1="1201" y1="301.5" x2="1201" y2="812.5" stroke="url(#paint77_linear_609_1236)" stroke-linecap="round" stroke-dasharray="6 6"/>
<line x1="0.5" y1="-0.5" x2="511.5" y2="-0.5" transform="matrix(-4.37114e-08 -1 -1 4.37114e-08 1250.5 301)" stroke="url(#paint78_linear_609_1236)" stroke-linecap="round" stroke-dasharray="6 6"/>
<line x1="1251" y1="301.5" x2="1251" y2="812.5" stroke="url(#paint79_linear_609_1236)" stroke-linecap="round" stroke-dasharray="6 6"/>
<line x1="0.5" y1="-0.5" x2="511.5" y2="-0.5" transform="matrix(-4.37114e-08 -1 -1 4.37114e-08 1300.5 301)" stroke="url(#paint80_linear_609_1236)" stroke-linecap="round" stroke-dasharray="6 6"/>
<line x1="1301" y1="301.5" x2="1301" y2="812.5" stroke="url(#paint81_linear_609_1236)" stroke-linecap="round" stroke-dasharray="6 6"/>
<line x1="0.5" y1="-0.5" x2="511.5" y2="-0.5" transform="matrix(-4.37114e-08 -1 -1 4.37114e-08 1350.5 301)" stroke="url(#paint82_linear_609_1236)" stroke-linecap="round" stroke-dasharray="6 6"/>
<line x1="1351" y1="301.5" x2="1351" y2="812.5" stroke="url(#paint83_linear_609_1236)" stroke-linecap="round" stroke-dasharray="6 6"/>
<line x1="0.5" y1="-0.5" x2="511.5" y2="-0.5" transform="matrix(-4.37114e-08 -1 -1 4.37114e-08 1400.5 301)" stroke="url(#paint84_linear_609_1236)" stroke-linecap="round" stroke-dasharray="6 6"/>
<line x1="1401" y1="301.5" x2="1401" y2="812.5" stroke="url(#paint85_linear_609_1236)" stroke-linecap="round" stroke-dasharray="6 6"/>
<g opacity="0.5">
<rect opacity="0.7" x="600.5" y="176" width="51" height="51" fill="#354156"/>
<rect opacity="0.7" x="400.5" y="26" width="51" height="51" fill="#354156"/>
<rect opacity="0.7" x="400.5" y="576" width="51" height="51" fill="#354156"/>
<rect opacity="0.7" x="850.5" y="476" width="51" height="51" fill="#354156"/>
<rect opacity="0.7" x="200.5" y="326" width="51" height="51" fill="#354156"/>
<rect opacity="0.7" x="1150.5" y="576" width="51" height="51" fill="#354156"/>
<rect opacity="0.7" x="1050.5" y="326" width="51" height="51" fill="#354156"/>
<rect opacity="0.7" x="1300.5" y="226" width="51" height="51" fill="#354156"/>
<rect opacity="0.7" x="1100.5" y="76" width="51" height="51" fill="#354156"/>
</g>
<defs>
<linearGradient id="paint0_linear_609_1236" x1="360" y1="26" x2="0" y2="26" gradientUnits="userSpaceOnUse">
<stop stop-color="#354156"/>
<stop offset="1" stop-color="#354156" stop-opacity="0"/>
</linearGradient>
<linearGradient id="paint1_linear_609_1236" x1="360" y1="6.29444e-05" x2="720" y2="7.90044e-05" gradientUnits="userSpaceOnUse">
<stop stop-color="#354156"/>
<stop offset="1" stop-color="#354156" stop-opacity="0"/>
</linearGradient>
<linearGradient id="paint2_linear_609_1236" x1="360" y1="76" x2="0" y2="76" gradientUnits="userSpaceOnUse">
<stop stop-color="#354156"/>
<stop offset="1" stop-color="#354156" stop-opacity="0"/>
</linearGradient>
<linearGradient id="paint3_linear_609_1236" x1="360" y1="6.29444e-05" x2="720" y2="7.90044e-05" gradientUnits="userSpaceOnUse">
<stop stop-color="#354156"/>
<stop offset="1" stop-color="#354156" stop-opacity="0"/>
</linearGradient>
<linearGradient id="paint4_linear_609_1236" x1="360" y1="126" x2="0" y2="126" gradientUnits="userSpaceOnUse">
<stop stop-color="#354156"/>
<stop offset="1" stop-color="#354156" stop-opacity="0"/>
</linearGradient>
<linearGradient id="paint5_linear_609_1236" x1="360" y1="6.29444e-05" x2="720" y2="7.90044e-05" gradientUnits="userSpaceOnUse">
<stop stop-color="#354156"/>
<stop offset="1" stop-color="#354156" stop-opacity="0"/>
</linearGradient>
<linearGradient id="paint6_linear_609_1236" x1="360" y1="176" x2="0" y2="176" gradientUnits="userSpaceOnUse">
<stop stop-color="#354156"/>
<stop offset="1" stop-color="#354156" stop-opacity="0"/>
</linearGradient>
<linearGradient id="paint7_linear_609_1236" x1="360" y1="6.29444e-05" x2="720" y2="7.90044e-05" gradientUnits="userSpaceOnUse">
<stop stop-color="#354156"/>
<stop offset="1" stop-color="#354156" stop-opacity="0"/>
</linearGradient>
<linearGradient id="paint8_linear_609_1236" x1="360" y1="226" x2="0" y2="226" gradientUnits="userSpaceOnUse">
<stop stop-color="#354156"/>
<stop offset="1" stop-color="#354156" stop-opacity="0"/>
</linearGradient>
<linearGradient id="paint9_linear_609_1236" x1="360" y1="6.29444e-05" x2="720" y2="7.90044e-05" gradientUnits="userSpaceOnUse">
<stop stop-color="#354156"/>
<stop offset="1" stop-color="#354156" stop-opacity="0"/>
</linearGradient>
<linearGradient id="paint10_linear_609_1236" x1="360" y1="276" x2="0" y2="276" gradientUnits="userSpaceOnUse">
<stop stop-color="#354156"/>
<stop offset="1" stop-color="#354156" stop-opacity="0"/>
</linearGradient>
<linearGradient id="paint11_linear_609_1236" x1="360" y1="6.29444e-05" x2="720" y2="7.90044e-05" gradientUnits="userSpaceOnUse">
<stop stop-color="#354156"/>
<stop offset="1" stop-color="#354156" stop-opacity="0"/>
</linearGradient>
<linearGradient id="paint12_linear_609_1236" x1="360" y1="326" x2="0" y2="326" gradientUnits="userSpaceOnUse">
<stop stop-color="#354156"/>
<stop offset="1" stop-color="#354156" stop-opacity="0"/>
</linearGradient>
<linearGradient id="paint13_linear_609_1236" x1="360" y1="6.29444e-05" x2="720" y2="7.90044e-05" gradientUnits="userSpaceOnUse">
<stop stop-color="#354156"/>
<stop offset="1" stop-color="#354156" stop-opacity="0"/>
</linearGradient>
<linearGradient id="paint14_linear_609_1236" x1="360" y1="376" x2="0" y2="376" gradientUnits="userSpaceOnUse">
<stop stop-color="#354156"/>
<stop offset="1" stop-color="#354156" stop-opacity="0"/>
</linearGradient>
<linearGradient id="paint15_linear_609_1236" x1="360" y1="6.29444e-05" x2="720" y2="7.90044e-05" gradientUnits="userSpaceOnUse">
<stop stop-color="#354156"/>
<stop offset="1" stop-color="#354156" stop-opacity="0"/>
</linearGradient>
<linearGradient id="paint16_linear_609_1236" x1="360" y1="426" x2="0" y2="426" gradientUnits="userSpaceOnUse">
<stop stop-color="#354156"/>
<stop offset="1" stop-color="#354156" stop-opacity="0"/>
</linearGradient>
<linearGradient id="paint17_linear_609_1236" x1="360" y1="6.29444e-05" x2="720" y2="7.90044e-05" gradientUnits="userSpaceOnUse">
<stop stop-color="#354156"/>
<stop offset="1" stop-color="#354156" stop-opacity="0"/>
</linearGradient>
<linearGradient id="paint18_linear_609_1236" x1="360" y1="476" x2="0" y2="476" gradientUnits="userSpaceOnUse">
<stop stop-color="#354156"/>
<stop offset="1" stop-color="#354156" stop-opacity="0"/>
</linearGradient>
<linearGradient id="paint19_linear_609_1236" x1="360" y1="6.29444e-05" x2="720" y2="7.90044e-05" gradientUnits="userSpaceOnUse">
<stop stop-color="#354156"/>
<stop offset="1" stop-color="#354156" stop-opacity="0"/>
</linearGradient>
<linearGradient id="paint20_linear_609_1236" x1="360" y1="526" x2="0" y2="526" gradientUnits="userSpaceOnUse">
<stop stop-color="#354156"/>
<stop offset="1" stop-color="#354156" stop-opacity="0"/>
</linearGradient>
<linearGradient id="paint21_linear_609_1236" x1="360" y1="6.29444e-05" x2="720" y2="7.90044e-05" gradientUnits="userSpaceOnUse">
<stop stop-color="#354156"/>
<stop offset="1" stop-color="#354156" stop-opacity="0"/>
</linearGradient>
<linearGradient id="paint22_linear_609_1236" x1="360" y1="576" x2="0" y2="576" gradientUnits="userSpaceOnUse">
<stop stop-color="#354156"/>
<stop offset="1" stop-color="#354156" stop-opacity="0"/>
</linearGradient>
<linearGradient id="paint23_linear_609_1236" x1="360" y1="6.29444e-05" x2="720" y2="7.90044e-05" gradientUnits="userSpaceOnUse">
<stop stop-color="#354156"/>
<stop offset="1" stop-color="#354156" stop-opacity="0"/>
</linearGradient>
<linearGradient id="paint24_linear_609_1236" x1="360" y1="626" x2="0" y2="626" gradientUnits="userSpaceOnUse">
<stop stop-color="#354156"/>
<stop offset="1" stop-color="#354156" stop-opacity="0"/>
</linearGradient>
<linearGradient id="paint25_linear_609_1236" x1="360" y1="6.29444e-05" x2="720" y2="7.90044e-05" gradientUnits="userSpaceOnUse">
<stop stop-color="#354156"/>
<stop offset="1" stop-color="#354156" stop-opacity="0"/>
</linearGradient>
<linearGradient id="paint26_linear_609_1236" x1="360" y1="676" x2="0" y2="676" gradientUnits="userSpaceOnUse">
<stop stop-color="#354156"/>
<stop offset="1" stop-color="#354156" stop-opacity="0"/>
</linearGradient>
<linearGradient id="paint27_linear_609_1236" x1="360" y1="6.29444e-05" x2="720" y2="7.90044e-05" gradientUnits="userSpaceOnUse">
<stop stop-color="#354156"/>
<stop offset="1" stop-color="#354156" stop-opacity="0"/>
</linearGradient>
<linearGradient id="paint28_linear_609_1236" x1="256" y1="6.29444e-05" x2="512" y2="7.10656e-05" gradientUnits="userSpaceOnUse">
<stop stop-color="#354156"/>
<stop offset="1" stop-color="#354156" stop-opacity="0"/>
</linearGradient>
<linearGradient id="paint29_linear_609_1236" x1="0.499926" y1="557" x2="0.499907" y2="813" gradientUnits="userSpaceOnUse">
<stop stop-color="#354156"/>
<stop offset="1" stop-color="#354156" stop-opacity="0"/>
</linearGradient>
<linearGradient id="paint30_linear_609_1236" x1="256" y1="6.29444e-05" x2="512" y2="7.10656e-05" gradientUnits="userSpaceOnUse">
<stop stop-color="#354156"/>
<stop offset="1" stop-color="#354156" stop-opacity="0"/>
</linearGradient>
<linearGradient id="paint31_linear_609_1236" x1="50.4999" y1="557" x2="50.4999" y2="813" gradientUnits="userSpaceOnUse">
<stop stop-color="#354156"/>
<stop offset="1" stop-color="#354156" stop-opacity="0"/>
</linearGradient>
<linearGradient id="paint32_linear_609_1236" x1="256" y1="6.29444e-05" x2="512" y2="7.10656e-05" gradientUnits="userSpaceOnUse">
<stop stop-color="#354156"/>
<stop offset="1" stop-color="#354156" stop-opacity="0"/>
</linearGradient>
<linearGradient id="paint33_linear_609_1236" x1="100.5" y1="557" x2="100.5" y2="813" gradientUnits="userSpaceOnUse">
<stop stop-color="#354156"/>
<stop offset="1" stop-color="#354156" stop-opacity="0"/>
</linearGradient>
<linearGradient id="paint34_linear_609_1236" x1="256" y1="6.29444e-05" x2="512" y2="7.10656e-05" gradientUnits="userSpaceOnUse">
<stop stop-color="#354156"/>
<stop offset="1" stop-color="#354156" stop-opacity="0"/>
</linearGradient>
<linearGradient id="paint35_linear_609_1236" x1="150.5" y1="557" x2="150.5" y2="813" gradientUnits="userSpaceOnUse">
<stop stop-color="#354156"/>
<stop offset="1" stop-color="#354156" stop-opacity="0"/>
</linearGradient>
<linearGradient id="paint36_linear_609_1236" x1="256" y1="6.29444e-05" x2="512" y2="7.10656e-05" gradientUnits="userSpaceOnUse">
<stop stop-color="#354156"/>
<stop offset="1" stop-color="#354156" stop-opacity="0"/>
</linearGradient>
<linearGradient id="paint37_linear_609_1236" x1="200.5" y1="557" x2="200.5" y2="813" gradientUnits="userSpaceOnUse">
<stop stop-color="#354156"/>
<stop offset="1" stop-color="#354156" stop-opacity="0"/>
</linearGradient>
<linearGradient id="paint38_linear_609_1236" x1="256" y1="6.29444e-05" x2="512" y2="7.10656e-05" gradientUnits="userSpaceOnUse">
<stop stop-color="#354156"/>
<stop offset="1" stop-color="#354156" stop-opacity="0"/>
</linearGradient>
<linearGradient id="paint39_linear_609_1236" x1="250.5" y1="557" x2="250.5" y2="813" gradientUnits="userSpaceOnUse">
<stop stop-color="#354156"/>
<stop offset="1" stop-color="#354156" stop-opacity="0"/>
</linearGradient>
<linearGradient id="paint40_linear_609_1236" x1="256" y1="6.29444e-05" x2="512" y2="7.10656e-05" gradientUnits="userSpaceOnUse">
<stop stop-color="#354156"/>
<stop offset="1" stop-color="#354156" stop-opacity="0"/>
</linearGradient>
<linearGradient id="paint41_linear_609_1236" x1="300.5" y1="557" x2="300.5" y2="813" gradientUnits="userSpaceOnUse">
<stop stop-color="#354156"/>
<stop offset="1" stop-color="#354156" stop-opacity="0"/>
</linearGradient>
<linearGradient id="paint42_linear_609_1236" x1="256" y1="6.29444e-05" x2="512" y2="7.10656e-05" gradientUnits="userSpaceOnUse">
<stop stop-color="#354156"/>
<stop offset="1" stop-color="#354156" stop-opacity="0"/>
</linearGradient>
<linearGradient id="paint43_linear_609_1236" x1="350.5" y1="557" x2="350.5" y2="813" gradientUnits="userSpaceOnUse">
<stop stop-color="#354156"/>
<stop offset="1" stop-color="#354156" stop-opacity="0"/>
</linearGradient>
<linearGradient id="paint44_linear_609_1236" x1="256" y1="6.29444e-05" x2="512" y2="7.10656e-05" gradientUnits="userSpaceOnUse">
<stop stop-color="#354156"/>
<stop offset="1" stop-color="#354156" stop-opacity="0"/>
</linearGradient>
<linearGradient id="paint45_linear_609_1236" x1="400.5" y1="557" x2="400.5" y2="813" gradientUnits="userSpaceOnUse">
<stop stop-color="#354156"/>
<stop offset="1" stop-color="#354156" stop-opacity="0"/>
</linearGradient>
<linearGradient id="paint46_linear_609_1236" x1="256" y1="6.29444e-05" x2="512" y2="7.10656e-05" gradientUnits="userSpaceOnUse">
<stop stop-color="#354156"/>
<stop offset="1" stop-color="#354156" stop-opacity="0"/>
</linearGradient>
<linearGradient id="paint47_linear_609_1236" x1="450.5" y1="557" x2="450.5" y2="813" gradientUnits="userSpaceOnUse">
<stop stop-color="#354156"/>
<stop offset="1" stop-color="#354156" stop-opacity="0"/>
</linearGradient>
<linearGradient id="paint48_linear_609_1236" x1="256" y1="6.29444e-05" x2="512" y2="7.10656e-05" gradientUnits="userSpaceOnUse">
<stop stop-color="#354156"/>
<stop offset="1" stop-color="#354156" stop-opacity="0"/>
</linearGradient>
<linearGradient id="paint49_linear_609_1236" x1="500.5" y1="557" x2="500.5" y2="813" gradientUnits="userSpaceOnUse">
<stop stop-color="#354156"/>
<stop offset="1" stop-color="#354156" stop-opacity="0"/>
</linearGradient>
<linearGradient id="paint50_linear_609_1236" x1="256" y1="6.29444e-05" x2="512" y2="7.10656e-05" gradientUnits="userSpaceOnUse">
<stop stop-color="#354156"/>
<stop offset="1" stop-color="#354156" stop-opacity="0"/>
</linearGradient>
<linearGradient id="paint51_linear_609_1236" x1="550.5" y1="557" x2="550.5" y2="813" gradientUnits="userSpaceOnUse">
<stop stop-color="#354156"/>
<stop offset="1" stop-color="#354156" stop-opacity="0"/>
</linearGradient>
<linearGradient id="paint52_linear_609_1236" x1="256" y1="6.29444e-05" x2="512" y2="7.10656e-05" gradientUnits="userSpaceOnUse">
<stop stop-color="#354156"/>
<stop offset="1" stop-color="#354156" stop-opacity="0"/>
</linearGradient>
<linearGradient id="paint53_linear_609_1236" x1="600.5" y1="557" x2="600.5" y2="813" gradientUnits="userSpaceOnUse">
<stop stop-color="#354156"/>
<stop offset="1" stop-color="#354156" stop-opacity="0"/>
</linearGradient>
<linearGradient id="paint54_linear_609_1236" x1="256" y1="6.29444e-05" x2="512" y2="7.10656e-05" gradientUnits="userSpaceOnUse">
<stop stop-color="#354156"/>
<stop offset="1" stop-color="#354156" stop-opacity="0"/>
</linearGradient>
<linearGradient id="paint55_linear_609_1236" x1="650.5" y1="557" x2="650.5" y2="813" gradientUnits="userSpaceOnUse">
<stop stop-color="#354156"/>
<stop offset="1" stop-color="#354156" stop-opacity="0"/>
</linearGradient>
<linearGradient id="paint56_linear_609_1236" x1="256" y1="6.29444e-05" x2="512" y2="7.10656e-05" gradientUnits="userSpaceOnUse">
<stop stop-color="#354156"/>
<stop offset="1" stop-color="#354156" stop-opacity="0"/>
</linearGradient>
<linearGradient id="paint57_linear_609_1236" x1="700.5" y1="557" x2="700.5" y2="813" gradientUnits="userSpaceOnUse">
<stop stop-color="#354156"/>
<stop offset="1" stop-color="#354156" stop-opacity="0"/>
</linearGradient>
<linearGradient id="paint58_linear_609_1236" x1="256" y1="6.29444e-05" x2="512" y2="7.10656e-05" gradientUnits="userSpaceOnUse">
<stop stop-color="#354156"/>
<stop offset="1" stop-color="#354156" stop-opacity="0"/>
</linearGradient>
<linearGradient id="paint59_linear_609_1236" x1="750.5" y1="557" x2="750.5" y2="813" gradientUnits="userSpaceOnUse">
<stop stop-color="#354156"/>
<stop offset="1" stop-color="#354156" stop-opacity="0"/>
</linearGradient>
<linearGradient id="paint60_linear_609_1236" x1="256" y1="6.29444e-05" x2="512" y2="7.10656e-05" gradientUnits="userSpaceOnUse">
<stop stop-color="#354156"/>
<stop offset="1" stop-color="#354156" stop-opacity="0"/>
</linearGradient>
<linearGradient id="paint61_linear_609_1236" x1="800.5" y1="557" x2="800.5" y2="813" gradientUnits="userSpaceOnUse">
<stop stop-color="#354156"/>
<stop offset="1" stop-color="#354156" stop-opacity="0"/>
</linearGradient>
<linearGradient id="paint62_linear_609_1236" x1="256" y1="6.29444e-05" x2="512" y2="7.10656e-05" gradientUnits="userSpaceOnUse">
<stop stop-color="#354156"/>
<stop offset="1" stop-color="#354156" stop-opacity="0"/>
</linearGradient>
<linearGradient id="paint63_linear_609_1236" x1="850.5" y1="557" x2="850.5" y2="813" gradientUnits="userSpaceOnUse">
<stop stop-color="#354156"/>
<stop offset="1" stop-color="#354156" stop-opacity="0"/>
</linearGradient>
<linearGradient id="paint64_linear_609_1236" x1="256" y1="6.29444e-05" x2="512" y2="7.10656e-05" gradientUnits="userSpaceOnUse">
<stop stop-color="#354156"/>
<stop offset="1" stop-color="#354156" stop-opacity="0"/>
</linearGradient>
<linearGradient id="paint65_linear_609_1236" x1="900.5" y1="557" x2="900.5" y2="813" gradientUnits="userSpaceOnUse">
<stop stop-color="#354156"/>
<stop offset="1" stop-color="#354156" stop-opacity="0"/>
</linearGradient>
<linearGradient id="paint66_linear_609_1236" x1="256" y1="6.29444e-05" x2="512" y2="7.10656e-05" gradientUnits="userSpaceOnUse">
<stop stop-color="#354156"/>
<stop offset="1" stop-color="#354156" stop-opacity="0"/>
</linearGradient>
<linearGradient id="paint67_linear_609_1236" x1="950.5" y1="557" x2="950.5" y2="813" gradientUnits="userSpaceOnUse">
<stop stop-color="#354156"/>
<stop offset="1" stop-color="#354156" stop-opacity="0"/>
</linearGradient>
<linearGradient id="paint68_linear_609_1236" x1="256" y1="6.29444e-05" x2="512" y2="7.10656e-05" gradientUnits="userSpaceOnUse">
<stop stop-color="#354156"/>
<stop offset="1" stop-color="#354156" stop-opacity="0"/>
</linearGradient>
<linearGradient id="paint69_linear_609_1236" x1="1000.5" y1="557" x2="1000.5" y2="813" gradientUnits="userSpaceOnUse">
<stop stop-color="#354156"/>
<stop offset="1" stop-color="#354156" stop-opacity="0"/>
</linearGradient>
<linearGradient id="paint70_linear_609_1236" x1="256" y1="6.29444e-05" x2="512" y2="7.10656e-05" gradientUnits="userSpaceOnUse">
<stop stop-color="#354156"/>
<stop offset="1" stop-color="#354156" stop-opacity="0"/>
</linearGradient>
<linearGradient id="paint71_linear_609_1236" x1="1050.5" y1="557" x2="1050.5" y2="813" gradientUnits="userSpaceOnUse">
<stop stop-color="#354156"/>
<stop offset="1" stop-color="#354156" stop-opacity="0"/>
</linearGradient>
<linearGradient id="paint72_linear_609_1236" x1="256" y1="6.29444e-05" x2="512" y2="7.10656e-05" gradientUnits="userSpaceOnUse">
<stop stop-color="#354156"/>
<stop offset="1" stop-color="#354156" stop-opacity="0"/>
</linearGradient>
<linearGradient id="paint73_linear_609_1236" x1="1100.5" y1="557" x2="1100.5" y2="813" gradientUnits="userSpaceOnUse">
<stop stop-color="#354156"/>
<stop offset="1" stop-color="#354156" stop-opacity="0"/>
</linearGradient>
<linearGradient id="paint74_linear_609_1236" x1="256" y1="6.29444e-05" x2="512" y2="7.10656e-05" gradientUnits="userSpaceOnUse">
<stop stop-color="#354156"/>
<stop offset="1" stop-color="#354156" stop-opacity="0"/>
</linearGradient>
<linearGradient id="paint75_linear_609_1236" x1="1150.5" y1="557" x2="1150.5" y2="813" gradientUnits="userSpaceOnUse">
<stop stop-color="#354156"/>
<stop offset="1" stop-color="#354156" stop-opacity="0"/>
</linearGradient>
<linearGradient id="paint76_linear_609_1236" x1="256" y1="6.29444e-05" x2="512" y2="7.10656e-05" gradientUnits="userSpaceOnUse">
<stop stop-color="#354156"/>
<stop offset="1" stop-color="#354156" stop-opacity="0"/>
</linearGradient>
<linearGradient id="paint77_linear_609_1236" x1="1200.5" y1="557" x2="1200.5" y2="813" gradientUnits="userSpaceOnUse">
<stop stop-color="#354156"/>
<stop offset="1" stop-color="#354156" stop-opacity="0"/>
</linearGradient>
<linearGradient id="paint78_linear_609_1236" x1="256" y1="6.29444e-05" x2="512" y2="7.10656e-05" gradientUnits="userSpaceOnUse">
<stop stop-color="#354156"/>
<stop offset="1" stop-color="#354156" stop-opacity="0"/>
</linearGradient>
<linearGradient id="paint79_linear_609_1236" x1="1250.5" y1="557" x2="1250.5" y2="813" gradientUnits="userSpaceOnUse">
<stop stop-color="#354156"/>
<stop offset="1" stop-color="#354156" stop-opacity="0"/>
</linearGradient>
<linearGradient id="paint80_linear_609_1236" x1="256" y1="6.29444e-05" x2="512" y2="7.10656e-05" gradientUnits="userSpaceOnUse">
<stop stop-color="#354156"/>
<stop offset="1" stop-color="#354156" stop-opacity="0"/>
</linearGradient>
<linearGradient id="paint81_linear_609_1236" x1="1300.5" y1="557" x2="1300.5" y2="813" gradientUnits="userSpaceOnUse">
<stop stop-color="#354156"/>
<stop offset="1" stop-color="#354156" stop-opacity="0"/>
</linearGradient>
<linearGradient id="paint82_linear_609_1236" x1="256" y1="6.29444e-05" x2="512" y2="7.10656e-05" gradientUnits="userSpaceOnUse">
<stop stop-color="#354156"/>
<stop offset="1" stop-color="#354156" stop-opacity="0"/>
</linearGradient>
<linearGradient id="paint83_linear_609_1236" x1="1350.5" y1="557" x2="1350.5" y2="813" gradientUnits="userSpaceOnUse">
<stop stop-color="#354156"/>
<stop offset="1" stop-color="#354156" stop-opacity="0"/>
</linearGradient>
<linearGradient id="paint84_linear_609_1236" x1="256" y1="6.29444e-05" x2="512" y2="7.10656e-05" gradientUnits="userSpaceOnUse">
<stop stop-color="#354156"/>
<stop offset="1" stop-color="#354156" stop-opacity="0"/>
</linearGradient>
<linearGradient id="paint85_linear_609_1236" x1="1400.5" y1="557" x2="1400.5" y2="813" gradientUnits="userSpaceOnUse">
<stop stop-color="#354156"/>
<stop offset="1" stop-color="#354156" stop-opacity="0"/>
</linearGradient>
</defs>
</svg>
