<svg width="32" height="32" viewBox="0 0 32 32" fill="none" xmlns="http://www.w3.org/2000/svg">
<path d="M16.0353 2.66406C9.51125 2.66322 3.94976 7.39471 2.9052 13.8346C1.86065 20.2746 5.64146 26.5214 11.8313 28.5827C12.498 28.7027 12.7367 28.2934 12.7367 27.9414C12.7367 27.6254 12.726 26.7881 12.722 25.6747C9.022 26.4747 8.24067 23.8907 8.24067 23.8907C7.99709 23.0867 7.47344 22.3965 6.76467 21.9454C5.56467 21.1201 6.85667 21.1387 6.85667 21.1387C7.71091 21.2559 8.46274 21.762 8.89267 22.5094C9.25658 23.1711 9.86968 23.66 10.5957 23.8676C11.3218 24.0751 12.1007 23.9841 12.7593 23.6147C12.8212 22.9401 13.1214 22.3095 13.606 21.8361C10.654 21.5014 7.55 20.3601 7.55 15.2627C7.53362 13.9443 8.0232 12.6698 8.91801 11.7014C8.51314 10.5538 8.56082 9.29507 9.05134 8.1814C9.05134 8.1814 10.1673 7.82273 12.7073 9.54273C14.8858 8.94541 17.1849 8.94541 19.3633 9.54273C21.9047 7.8214 23.0193 8.1814 23.0193 8.1814C23.5121 9.29454 23.5598 10.5542 23.1527 11.7014C24.0507 12.6697 24.5399 13.9476 24.518 15.2681C24.518 20.3787 21.4113 21.5014 18.4487 21.8307C19.0878 22.4841 19.4155 23.3805 19.3487 24.2921C19.3487 26.0707 19.3327 27.5054 19.3327 27.9414C19.3327 28.2974 19.57 28.7107 20.2487 28.5801C26.436 26.5152 30.2127 20.268 29.166 13.8298C28.1193 7.3916 22.5581 2.66257 16.0353 2.66406Z" fill="#354156"/>
</svg>
