<svg width="32" height="32" viewBox="0 0 32 32" fill="none" xmlns="http://www.w3.org/2000/svg">
<path d="M16.002 28.0558C12.722 28.0558 12.3353 28.0385 11.0553 27.9825C10.0571 27.9497 9.07186 27.7467 8.14195 27.3825C6.53304 26.7563 5.26081 25.4836 4.63529 23.8745C4.28503 22.9412 4.09611 21.9551 4.07662 20.9585C4.00195 19.6811 4.00195 19.2625 4.00195 16.0078C4.00195 12.7185 4.01929 12.3345 4.07662 11.0611C4.09654 10.0658 4.28545 9.08116 4.63529 8.14915C5.26013 6.53785 6.53442 5.26404 8.14595 4.63981C9.07748 4.28808 10.0624 4.09867 11.058 4.07981C12.3313 4.00781 12.75 4.00781 16.002 4.00781C19.3086 4.00781 19.6886 4.02515 20.9486 4.07981C21.9467 4.09883 22.9343 4.28823 23.8686 4.63981C25.4797 5.26475 26.7537 6.53831 27.3793 8.14915C27.7355 9.09474 27.9254 10.0948 27.9406 11.1051C28.0153 12.3825 28.0153 12.7998 28.0153 16.0531C28.0153 19.3065 27.9966 19.7331 27.9406 20.9958C27.9208 21.9934 27.7314 22.9804 27.3806 23.9145C26.7535 25.5248 25.4794 26.7979 23.8686 27.4238C22.9356 27.7734 21.9501 27.9623 20.954 27.9825C19.6806 28.0558 19.2633 28.0558 16.002 28.0558ZM15.9566 6.11848C12.6953 6.11848 12.3566 6.13448 11.0833 6.19181C10.3233 6.20188 9.57059 6.34213 8.85795 6.60648C7.80562 7.00916 6.97292 7.83847 6.56595 8.88915C6.29957 9.60954 6.1593 10.3705 6.15129 11.1385C6.08062 12.4305 6.08062 12.7691 6.08062 16.0078C6.08062 19.2078 6.09262 19.5958 6.15129 20.8798C6.16322 21.6401 6.30341 22.3929 6.56595 23.1065C6.97352 24.1565 7.80608 24.9851 8.85795 25.3878C9.57011 25.6539 10.3231 25.7942 11.0833 25.8025C12.374 25.8771 12.714 25.8771 15.9566 25.8771C19.2273 25.8771 19.566 25.8611 20.8286 25.8025C21.5892 25.7932 22.3424 25.653 23.0553 25.3878C24.1012 24.9817 24.9285 24.1549 25.3353 23.1091C25.6012 22.3881 25.7414 21.6269 25.75 20.8585H25.7646C25.822 19.5838 25.822 19.2438 25.822 15.9865C25.822 12.7291 25.8073 12.3865 25.75 11.1131C25.738 10.3537 25.5978 9.60183 25.3353 8.88915C24.9295 7.84191 24.102 7.01354 23.0553 6.60648C22.3426 6.3408 21.5892 6.20051 20.8286 6.19181C19.5393 6.11848 19.202 6.11848 15.9566 6.11848ZM16.002 22.1665C13.5086 22.1681 11.2598 20.6675 10.3044 18.3644C9.34903 16.0614 9.87516 13.4096 11.6375 11.6458C13.3998 9.88194 16.0511 9.35351 18.355 10.3069C20.6588 11.2603 22.1614 13.5078 22.162 16.0011C22.1583 19.4026 19.4034 22.1599 16.002 22.1665ZM16.002 11.9985C13.7928 11.9985 12.002 13.7893 12.002 15.9985C12.002 18.2076 13.7928 19.9985 16.002 19.9985C18.2111 19.9985 20.002 18.2076 20.002 15.9985C19.9968 13.7915 18.209 12.0036 16.002 11.9985ZM22.402 11.0478C21.6092 11.0449 20.9685 10.4006 20.97 9.60782C20.9714 8.81505 21.6145 8.17316 22.4073 8.17316C23.2001 8.17316 23.8431 8.81504 23.8446 9.60781C23.845 9.9903 23.693 10.3572 23.4223 10.6274C23.1516 10.8976 22.7844 11.0489 22.402 11.0478Z" fill="#354156"/>
</svg>
