<svg width="120" height="120" viewBox="0 0 120 120" fill="none" xmlns="http://www.w3.org/2000/svg">
<g clip-path="url(#clip0_555_26615)">
<path d="M59.7676 1.0625L69.1549 28.5922L91.9357 10.5079L84.9492 38.7425L113.891 35.8453L92.7484 55.8206L118.662 69.0302L90.0765 74.4041L104.735 99.5267L77.7817 88.5931L76.5307 117.652L59.7676 93.8825L43.0045 117.652L41.7534 88.5931L14.8005 99.5267L29.4586 74.4041L0.873203 69.0302L26.7867 55.8206L5.64447 35.8453L34.586 38.7425L27.5995 10.5079L50.3803 28.5922L59.7676 1.0625Z" fill="#FDF7C9"/>
<path d="M39.0415 45.648L43.2563 37.5304L45.9351 38.9213C46.5072 39.2183 46.954 39.5582 47.2754 39.9411C47.5968 40.3239 47.7814 40.7436 47.8289 41.2002C47.8765 41.6568 47.7678 42.1402 47.5029 42.6504C47.2299 43.1761 46.8853 43.5469 46.469 43.7626C46.0605 43.9823 45.6053 44.065 45.1035 44.0106C44.6095 43.9602 44.0919 43.7945 43.5507 43.5135L41.846 42.6284L40.0156 46.1538L39.0415 45.648ZM42.2735 41.805L43.955 42.6781C44.6044 43.0153 45.1287 43.1304 45.5277 43.0235C45.9308 42.9089 46.2567 42.6119 46.5056 42.1326C46.7585 41.6455 46.8139 41.2081 46.6717 40.8202C46.5336 40.4246 46.1398 40.0582 45.4904 39.721L43.8089 38.8479L42.2735 41.805ZM45.3512 48.9241L48.3377 43.1722L49.2191 43.6298L48.7282 44.7736C49.1027 44.4871 49.5299 44.3261 50.0096 44.2906C50.4894 44.2551 50.996 44.3758 51.5295 44.6527L50.9996 45.6732L50.7329 45.5348C50.0989 45.2056 49.539 45.1308 49.0531 45.3104C48.5673 45.49 48.1598 45.8968 47.8306 46.5308L46.3253 49.4299L45.3512 48.9241ZM51.5148 52.301C50.9813 52.0241 50.5624 51.6495 50.2579 51.1773C49.9611 50.7091 49.8054 50.1866 49.7909 49.6098C49.7803 49.0252 49.9336 48.4275 50.2507 47.8168C50.5638 47.2137 50.9527 46.7482 51.4175 46.4202C51.894 46.0885 52.409 45.9094 52.9627 45.8828C53.5281 45.8524 54.0969 45.9858 54.669 46.2828C55.2101 46.5638 55.6195 46.9285 55.8971 47.3769C56.1747 47.8253 56.3192 48.3126 56.3307 48.8388C56.3539 49.3612 56.235 49.8737 55.9741 50.3762C55.9179 50.4844 55.8737 50.5695 55.8416 50.6313C55.8095 50.6932 55.7555 50.7878 55.6795 50.9152L51.0988 48.5368C50.9253 48.9277 50.8376 49.314 50.8357 49.6958C50.8455 50.0739 50.9415 50.4182 51.1238 50.7288C51.3138 51.0434 51.5866 51.293 51.9423 51.4777C52.3443 51.6864 52.7288 51.7683 53.0957 51.7232C53.4626 51.6782 53.7902 51.5293 54.0785 51.2765L55.041 51.7763C54.7559 52.0797 54.4251 52.3104 54.0486 52.4683C53.6722 52.6262 53.2679 52.696 52.8357 52.6777C52.4112 52.6634 51.9709 52.5379 51.5148 52.301ZM51.5018 47.7891L55.1199 49.6677C55.3657 49.1377 55.3986 48.6395 55.2187 48.1731C55.0388 47.7067 54.7053 47.347 54.2183 47.0942C53.7544 46.8533 53.2665 46.7816 52.7547 46.879C52.2545 46.9726 51.8369 47.276 51.5018 47.7891ZM55.2555 54.0666L58.242 48.3147L59.1233 48.7723L58.7594 49.6434C59.1055 49.4305 59.4773 49.3192 59.8749 49.3097C60.2724 49.3002 60.6645 49.3958 61.051 49.5965C61.5071 49.8333 61.8494 50.1288 62.0778 50.483C62.3139 50.8411 62.4225 51.2558 62.4036 51.7269C62.7852 51.4834 63.2022 51.3514 63.6545 51.3311C64.1145 51.3147 64.5493 51.4129 64.9591 51.6256C65.4229 51.8665 65.7729 52.166 66.009 52.5241C66.2569 52.8786 66.3752 53.2934 66.3641 53.7685C66.3569 54.236 66.2049 54.7557 65.9078 55.3278L64.1617 58.6909L63.1991 58.1911L64.8911 54.9325C65.2002 54.3372 65.3132 53.8265 65.2301 53.4006C65.1469 52.9746 64.8812 52.6453 64.4328 52.4124C63.9689 52.1716 63.488 52.1526 62.9901 52.3554C62.504 52.5544 62.0883 52.9864 61.7431 53.6513L60.1956 56.6316L59.2215 56.1258L60.9135 52.8672C61.2225 52.2719 61.3355 51.7613 61.2524 51.3353C61.1693 50.9094 60.9035 50.58 60.4551 50.3472C59.999 50.1103 59.522 50.0933 59.0241 50.2961C58.5379 50.4952 58.1222 50.9272 57.777 51.592L56.2296 54.5724L55.2555 54.0666ZM69.5214 52.5516C69.3281 52.4513 69.1979 52.3051 69.1306 52.1132C69.0752 51.9175 69.0976 51.7231 69.198 51.5298C69.2943 51.3442 69.4365 51.2217 69.6244 51.1623C69.82 51.1068 70.0145 51.1293 70.2078 51.2296C70.3933 51.3259 70.5197 51.4701 70.5869 51.662C70.6541 51.854 70.6395 52.0427 70.5432 52.2282C70.4428 52.4215 70.2928 52.5498 70.0932 52.6129C69.8975 52.6684 69.7069 52.648 69.5214 52.5516ZM65.3855 59.3263L68.372 53.5744L69.3461 54.0801L66.3596 59.8321L65.3855 59.3263ZM69.7461 61.7671C69.2977 61.5343 68.9496 61.2406 68.7018 60.8862C68.4657 60.5281 68.3512 60.1153 68.3583 59.6478C68.3694 59.1727 68.5235 58.649 68.8206 58.0769L70.5667 54.7139L71.5408 55.2197L69.8489 58.4783C69.5398 59.0736 69.4307 59.5863 69.5215 60.0162C69.6124 60.4462 69.9052 60.7896 70.4 61.0465C70.8948 61.3034 71.3968 61.3384 71.9062 61.1513C72.4273 60.9606 72.8605 60.5328 73.2057 59.8679L74.7531 56.8876L75.7272 57.3933L72.7407 63.1453L71.8594 62.6877L72.3373 61.6255C71.9631 61.8925 71.5478 62.04 71.0916 62.0681C70.6353 62.0962 70.1868 61.9959 69.7461 61.7671ZM73.9962 63.7972L76.9828 58.0452L77.8641 58.5028L77.5002 59.3739C77.8463 59.161 78.2181 59.0498 78.6156 59.0403C79.0132 59.0308 79.4053 59.1264 79.7918 59.3271C80.2479 59.5639 80.5902 59.8594 80.8186 60.2135C81.0547 60.5717 81.1633 60.9863 81.1444 61.4575C81.526 61.2139 81.943 61.082 82.3953 61.0616C82.8553 61.0453 83.2901 61.1435 83.6999 61.3562C84.1637 61.5971 84.5137 61.8966 84.7498 62.2547C84.9977 62.6091 85.116 63.0239 85.1049 63.4991C85.0977 63.9665 84.9456 64.4863 84.6486 65.0584L82.9025 68.4214L81.9399 67.9217L83.6319 64.663C83.941 64.0677 84.054 63.5571 83.9709 63.1311C83.8877 62.7052 83.622 62.3758 83.1736 62.143C82.7097 61.9021 82.2288 61.8831 81.7309 62.0859C81.2448 62.285 80.8291 62.717 80.4839 63.3818L78.9364 66.3622L77.9623 65.8564L79.6542 62.5977C79.9633 62.0025 80.0763 61.4918 79.9932 61.0659C79.9101 60.6399 79.6443 60.3105 79.1959 60.0777C78.7398 59.8409 78.2628 59.8239 77.7649 60.0267C77.2787 60.2258 76.863 60.6577 76.5178 61.3226L74.9704 64.3029L73.9962 63.7972ZM31.3031 56.278L35.1024 48.9605L32.6787 47.7021L33.0942 46.9019L38.9157 49.9245L38.5002 50.7247L36.0765 49.4663L32.2772 56.7837L31.3031 56.278ZM36.9564 59.3899C36.4229 59.113 36.004 58.7384 35.6995 58.2662C35.4027 57.798 35.247 57.2755 35.2325 56.6987C35.2219 56.1141 35.3752 55.5164 35.6923 54.9056C36.0054 54.3026 36.3943 53.8371 36.8591 53.5091C37.3356 53.1774 37.8506 52.9983 38.4043 52.9717C38.9697 52.9413 39.5385 53.0747 40.1106 53.3717C40.6517 53.6527 41.0611 54.0174 41.3387 54.4658C41.6163 54.9142 41.7608 55.4015 41.7723 55.9276C41.7955 56.4501 41.6766 56.9626 41.4157 57.4651C41.3595 57.5733 41.3153 57.6584 41.2832 57.7202C41.2511 57.7821 41.1971 57.8767 41.1211 58.0041L36.5404 55.6257C36.3669 56.0166 36.2792 56.4029 36.2773 56.7847C36.2871 57.1628 36.3831 57.5071 36.5654 57.8177C36.7554 58.1323 37.0282 58.3819 37.3839 58.5666C37.7859 58.7753 38.1704 58.8572 38.5373 58.8121C38.9042 58.7671 39.2318 58.6181 39.5201 58.3654L40.4826 58.8652C40.1975 59.1686 39.8667 59.3993 39.4902 59.5572C39.1138 59.7151 38.7095 59.7849 38.2773 59.7666C37.8528 59.7523 37.4125 59.6268 36.9564 59.3899ZM36.9434 54.878L40.5615 56.7566C40.8073 56.2266 40.8402 55.7284 40.6603 55.262C40.4804 54.7956 40.1469 54.4359 39.6599 54.1831C39.196 53.9422 38.7081 53.8705 38.1963 53.9679C37.6961 54.0615 37.2785 54.3649 36.9434 54.878ZM40.6971 61.1555L43.6836 55.4036L44.5649 55.8612L44.201 56.7323C44.5471 56.5194 44.9189 56.4081 45.3165 56.3986C45.714 56.3891 46.1061 56.4847 46.4926 56.6854C46.9488 56.9222 47.291 57.2177 47.5194 57.5719C47.7555 57.93 47.8641 58.3447 47.8452 58.8158C48.2268 58.5723 48.6438 58.4403 49.0961 58.42C49.5561 58.4036 49.9909 58.5018 50.4007 58.7145C50.8645 58.9554 51.2145 59.2549 51.4506 59.613C51.6985 59.9675 51.8168 60.3823 51.8057 60.8574C51.7985 61.3249 51.6465 61.8446 51.3494 62.4167L49.6033 65.7798L48.6407 65.28L50.3327 62.0213C50.6418 61.4261 50.7548 60.9154 50.6717 60.4895C50.5885 60.0635 50.3228 59.7341 49.8744 59.5013C49.4105 59.2605 48.9296 59.2415 48.4317 59.4443C47.9456 59.6433 47.5299 60.0753 47.1847 60.7402L45.6372 63.7205L44.6631 63.2147L46.3551 59.9561C46.6641 59.3608 46.7771 58.8502 46.694 58.4242C46.6109 57.9983 46.3451 57.6689 45.8967 57.4361C45.4406 57.1992 44.9636 57.1822 44.4657 57.385C43.9795 57.5841 43.5638 58.0161 43.2186 58.6809L41.6712 61.6613L40.6971 61.1555ZM49.398 68.9123L53.7092 60.6091L54.5906 61.0667L54.1896 62.0658C54.5196 61.8838 54.913 61.769 55.3695 61.7214C55.8338 61.6779 56.3327 61.7946 56.8662 62.0715C57.446 62.3726 57.8803 62.7649 58.169 63.2486C58.4577 63.7322 58.5997 64.2623 58.5948 64.8389C58.5899 65.4154 58.4369 65.9936 58.1358 66.5734C57.8388 67.1455 57.4559 67.5995 56.9871 67.9352C56.5183 68.2709 55.9992 68.4578 55.4298 68.4958C54.8721 68.5302 54.3034 68.3968 53.7236 68.0958C53.252 67.8509 52.8808 67.5355 52.6101 67.1495C52.347 66.7676 52.2092 66.3525 52.1966 65.9043L50.3722 69.418L49.398 68.9123ZM54.0587 67.195C54.453 67.3997 54.8432 67.4895 55.2293 67.4642C55.6194 67.4312 55.98 67.2945 56.3109 67.0541C56.6536 66.8099 56.9353 66.4753 57.1561 66.0501C57.3689 65.6403 57.4784 65.2309 57.4846 64.8219C57.5026 64.4092 57.4129 64.0338 57.2154 63.6957C57.022 63.3499 56.7204 63.0706 56.3107 62.8579C55.9241 62.6572 55.5319 62.5713 55.134 62.6003C54.7479 62.6256 54.3855 62.7564 54.0469 62.9928C53.7159 63.2332 53.4381 63.5699 53.2133 64.0028C53.0045 64.4049 52.895 64.8142 52.8848 65.231C52.8785 65.64 52.9721 66.0174 53.1656 66.3632C53.359 66.709 53.6567 66.9863 54.0587 67.195ZM57.6567 69.9612L61.8715 61.8436L62.8456 62.3494L58.6308 70.467L57.6567 69.9612ZM61.7207 72.248C61.3264 72.0433 61.001 71.7909 60.7446 71.4909C60.4881 71.1909 60.3315 70.8593 60.2747 70.4961C60.2296 70.1291 60.3075 69.7524 60.5082 69.3658C60.741 68.9174 61.0416 68.622 61.41 68.4796C61.7824 68.3294 62.1882 68.2947 62.6272 68.3754C63.078 68.4524 63.5237 68.6053 63.9644 68.8341L65.5183 69.641C65.7271 69.239 65.8221 68.8859 65.8033 68.5817C65.7923 68.2815 65.7047 68.025 65.5404 67.8121C65.3761 67.5992 65.1625 67.4245 64.8997 67.288C64.5209 67.0913 64.1441 67.0135 63.7695 67.0545C63.4065 67.0918 63.0919 67.2819 62.8257 67.6245L61.8284 67.1067C62.0838 66.7093 62.4056 66.4298 62.7938 66.2682C63.182 66.1066 63.5959 66.0467 64.0355 66.0884C64.4869 66.1265 64.9174 66.2519 65.3272 66.4646C65.907 66.7657 66.3185 67.1168 66.5618 67.5179C66.809 67.9113 66.9215 68.328 66.8992 68.7679C66.8769 69.2078 66.7534 69.6442 66.5286 70.0772L65.6134 71.8399C65.4648 72.1259 65.3872 72.3605 65.3805 72.5435C65.3739 72.7265 65.5055 72.9077 65.7755 73.0872L65.3299 73.9453C65.0748 73.8129 64.8589 73.6615 64.6823 73.4913C64.5097 73.3133 64.3881 73.1128 64.3174 72.8896C64.2586 72.6627 64.2624 72.4095 64.329 72.13C63.9672 72.3544 63.5579 72.4903 63.1014 72.5379C62.6525 72.5895 62.1923 72.4929 61.7207 72.248ZM62.299 71.5029C62.6855 71.7036 63.0604 71.7756 63.4236 71.7188C63.7908 71.6543 64.1204 71.5015 64.4124 71.2605C64.7122 71.0235 64.9483 70.7388 65.1209 70.4064L65.127 70.3948L63.6542 69.6301C63.3836 69.4896 63.1124 69.388 62.8406 69.3255C62.5729 69.2551 62.3254 69.2592 62.0982 69.3375C61.8751 69.4081 61.6932 69.5787 61.5528 69.8493C61.3721 70.1972 61.3633 70.5166 61.5264 70.8074C61.6936 71.0904 61.9511 71.3223 62.299 71.5029ZM68.271 75.4724C67.7453 75.1994 67.3979 74.8571 67.2289 74.4454C67.0598 74.0338 67.1479 73.4955 67.4931 72.8306L69.1369 69.6647L68.1396 69.1469L68.5671 68.3236L69.5644 68.8414L70.281 67.4614L71.2551 67.9672L70.5385 69.3472L72.1505 70.1841L71.723 71.0075L70.111 70.1705L68.4673 73.3364C68.2786 73.6998 68.2236 73.9853 68.3022 74.193C68.3849 74.393 68.6118 74.5893 68.9829 74.782L69.5975 75.1011L69.164 75.936L68.271 75.4724ZM72.4901 77.8397C71.9566 77.5627 71.5377 77.1881 71.2332 76.7159C70.9364 76.2478 70.7808 75.7253 70.7662 75.1484C70.7556 74.5638 70.9089 73.9661 71.226 73.3554C71.5391 72.7524 71.928 72.2869 72.3928 71.9589C72.8693 71.6272 73.3844 71.448 73.938 71.4214C74.5034 71.3911 75.0722 71.5244 75.6443 71.8215C76.1855 72.1025 76.5948 72.4672 76.8724 72.9156C77.15 73.364 77.2945 73.8512 77.306 74.3774C77.3292 74.8998 77.2103 75.4123 76.9494 75.9148C76.8932 76.0231 76.849 76.1081 76.8169 76.17C76.7848 76.2318 76.7308 76.3264 76.6548 76.4538L72.0741 74.0755C71.9006 74.4663 71.8129 74.8527 71.811 75.2345C71.8208 75.6126 71.9169 75.9569 72.0991 76.2675C72.2891 76.582 72.562 76.8317 72.9176 77.0163C73.3196 77.2251 73.7041 77.3069 74.071 77.2618C74.4379 77.2168 74.7655 77.0679 75.0538 76.8151L76.0163 77.3149C75.7312 77.6183 75.4004 77.849 75.0239 78.0069C74.6475 78.1648 74.2432 78.2346 73.811 78.2163C73.3865 78.2021 72.9462 78.0765 72.4901 77.8397ZM72.4771 73.3277L76.0953 75.2063C76.341 74.6763 76.3739 74.1781 76.194 73.7117C76.0141 73.2453 75.6807 72.8857 75.1936 72.6328C74.7297 72.3919 74.2419 72.3202 73.73 72.4176C73.2298 72.5113 72.8122 72.8146 72.4771 73.3277ZM78.3619 80.8884C77.9057 80.6516 77.5361 80.3615 77.2531 80.0182C76.974 79.6672 76.7966 79.2905 76.7209 78.888C76.657 78.4819 76.7003 78.0676 76.8509 77.6452L77.8483 78.163C77.7536 78.4966 77.7756 78.8418 77.9143 79.1984C78.0647 79.5514 78.3603 79.8423 78.801 80.0711C79.2107 80.2838 79.5564 80.3553 79.838 80.2856C80.1236 80.2081 80.3286 80.0496 80.453 79.8099C80.5735 79.578 80.6078 79.3701 80.5561 79.1862C80.5121 79.0063 80.3979 78.8292 80.2135 78.6549C80.0409 78.477 79.816 78.2768 79.5389 78.0544C79.2503 77.8162 78.9815 77.5589 78.7325 77.2823C78.4875 76.9981 78.3186 76.6994 78.226 76.3863C78.1334 76.0732 78.1754 75.7465 78.352 75.4064C78.5286 75.0662 78.7682 74.8127 79.0708 74.6459C79.3733 74.4791 79.7173 74.4025 80.1029 74.4162C80.4961 74.4339 80.9053 74.5531 81.3305 74.7739C81.9413 75.091 82.3597 75.5045 82.5857 76.0145C82.8234 76.5207 82.8267 77.0721 82.5955 77.6685L81.633 77.1688C81.7468 76.8549 81.7377 76.5606 81.6055 76.2859C81.4851 76.0074 81.2471 75.7759 80.8914 75.5912C80.5435 75.4106 80.2348 75.3435 79.9653 75.3901C79.7035 75.4406 79.5103 75.5857 79.3859 75.8254C79.3056 75.98 79.2915 76.1395 79.3435 76.304C79.3956 76.4684 79.502 76.6415 79.6629 76.8231C79.8315 77.0088 80.0389 77.2049 80.2851 77.4112C80.6315 77.6892 80.9331 77.9685 81.1899 78.2491C81.4466 78.5296 81.6134 78.8322 81.6903 79.1567C81.7712 79.4735 81.7052 79.8368 81.4925 80.2466C81.3236 80.5907 81.0761 80.85 80.7501 81.0242C80.4318 81.2025 80.0663 81.2826 79.6536 81.2646C79.2486 81.2507 78.818 81.1253 78.3619 80.8884Z" fill="#354156"/>
</g>
<defs>
<clipPath id="clip0_555_26615">
<rect width="119.233" height="119.233" fill="white" transform="translate(0 0.796875)"/>
</clipPath>
</defs>
</svg>
