<svg width="10" height="12" viewBox="0 0 10 12" fill="none" xmlns="http://www.w3.org/2000/svg">
<path opacity="0.5" d="M4.52188 1.27122C4.66619 0.799629 5.33381 0.799628 5.47812 1.27122L5.84916 2.48377C6.0796 3.23683 6.85318 3.68346 7.62057 3.50649L8.85618 3.22155C9.33675 3.11073 9.67056 3.6889 9.3343 4.04967L8.46973 4.97728C7.93277 5.55337 7.93277 6.44663 8.46973 7.02273L9.3343 7.95033C9.67056 8.3111 9.33675 8.88927 8.85618 8.77845L7.62057 8.49351C6.85318 8.31654 6.0796 8.76317 5.84916 9.51623L5.47812 10.7288C5.33381 11.2004 4.66619 11.2004 4.52188 10.7288L4.15084 9.51623C3.9204 8.76317 3.14682 8.31654 2.37943 8.49351L1.14382 8.77845C0.663251 8.88927 0.329442 8.3111 0.665701 7.95033L1.53027 7.02272C2.06723 6.44662 2.06723 5.55337 1.53027 4.97728L0.6657 4.04967C0.329444 3.6889 0.663249 3.11073 1.14382 3.22155L2.37943 3.50649C3.14683 3.68346 3.9204 3.23683 4.15084 2.48377L4.52188 1.27122Z" fill="#F07D51" fill-opacity="0.24" stroke="#F07D51"/>
</svg>
